<?xml version="1.0" encoding="UTF-8"?>
<svg version="1.1" xmlns="http://www.w3.org/2000/svg" width="564" height="721">
<path d="M0 0 C186.12 0 372.24 0 564 0 C564 237.93 564 475.86 564 721 C377.88 721 191.76 721 0 721 C0 483.07 0 245.14 0 0 Z " fill="#6F7473" transform="translate(0,0)"/>
<path d="M0 0 C30.36 0 60.72 0 92 0 C92 3.63 92 7.26 92 11 C97.61 11 103.22 11 109 11 C109 14.96 109 18.92 109 23 C114.94 23 120.88 23 127 23 C127 26.63 127 30.26 127 34 C132.61 34 138.22 34 144 34 C144 45.55 144 57.1 144 69 C149.61 69 155.22 69 161 69 C161 84.18 161 99.36 161 115 C166.61 115 172.22 115 178 115 C178 156.58 178 198.16 178 241 C172.39 241 166.78 241 161 241 C161 259.81 161 278.62 161 298 C173.87 298 186.74 298 200 298 C200 303.61 200 309.22 200 315 C211.55 315 223.1 315 235 315 C235 320.94 235 326.88 235 333 C240.61 333 246.22 333 252 333 C252 346.2 252 359.4 252 373 C257.61 373 263.22 373 269 373 C269 384.22 269 395.44 269 407 C272.63 407 276.26 407 280 407 C280 416.57 280 426.14 280 436 C283.96 436 287.92 436 292 436 C292 445.57 292 455.14 292 465 C295.96 465 299.92 465 304 465 C304 474.24 304 483.48 304 493 C307.63 493 311.26 493 315 493 C315 515.77 315 538.54 315 562 C311.37 562 307.74 562 304 562 C304 569.59 304 577.18 304 585 C300.04 585 296.08 585 292 585 C292 588.63 292 592.26 292 596 C288.04 596 284.08 596 280 596 C280 599.96 280 603.92 280 608 C276.37 608 272.74 608 269 608 C269 611.63 269 615.26 269 619 C265.37 619 261.74 619 258 619 C258 622.96 258 626.92 258 631 C250.41 631 242.82 631 235 631 C235 634.63 235 638.26 235 642 C227.41 642 219.82 642 212 642 C212 645.96 212 649.92 212 654 C208.04 654 204.08 654 200 654 C200 667.2 200 680.4 200 694 C194.39 694 188.78 694 183 694 C183 700.93 183 707.86 183 715 C92.58 715 2.16 715 -91 715 C-91 708.07 -91 701.14 -91 694 C-96.61 694 -102.22 694 -108 694 C-108 680.8 -108 667.6 -108 654 C-111.96 654 -115.92 654 -120 654 C-120 650.04 -120 646.08 -120 642 C-127.59 642 -135.18 642 -143 642 C-143 638.37 -143 634.74 -143 631 C-150.59 631 -158.18 631 -166 631 C-166 627.04 -166 623.08 -166 619 C-169.63 619 -173.26 619 -177 619 C-177 615.37 -177 611.74 -177 608 C-180.63 608 -184.26 608 -188 608 C-188 604.04 -188 600.08 -188 596 C-191.96 596 -195.92 596 -200 596 C-200 592.37 -200 588.74 -200 585 C-203.96 585 -207.92 585 -212 585 C-212 577.41 -212 569.82 -212 562 C-215.63 562 -219.26 562 -223 562 C-223 539.23 -223 516.46 -223 493 C-219.37 493 -215.74 493 -212 493 C-212 483.76 -212 474.52 -212 465 C-208.04 465 -204.08 465 -200 465 C-200 455.43 -200 445.86 -200 436 C-196.04 436 -192.08 436 -188 436 C-188 426.43 -188 416.86 -188 407 C-184.37 407 -180.74 407 -177 407 C-177 420.2 -177 433.4 -177 447 C-180.96 447 -184.92 447 -189 447 C-189 454.92 -189 462.84 -189 471 C-192.63 471 -196.26 471 -200 471 C-200 497.07 -200 523.14 -200 550 C-196.37 550 -192.74 550 -189 550 C-189 553.96 -189 557.92 -189 562 C-185.04 562 -181.08 562 -177 562 C-177 565.63 -177 569.26 -177 573 C-173.37 573 -169.74 573 -166 573 C-166 576.96 -166 580.92 -166 585 C-162.04 585 -158.08 585 -154 585 C-154 588.63 -154 592.26 -154 596 C-150.37 596 -146.74 596 -143 596 C-143 599.96 -143 603.92 -143 608 C-135.41 608 -127.82 608 -120 608 C-120 600.41 -120 592.82 -120 585 C-116.04 585 -112.08 585 -108 585 C-108 581.04 -108 577.08 -108 573 C-104.37 573 -100.74 573 -97 573 C-97 569.37 -97 565.74 -97 562 C-95.02 562 -93.04 562 -91 562 C-91 558.04 -91 554.08 -91 550 C-96.61 550 -102.22 550 -108 550 C-108 546.37 -108 542.74 -108 539 C-111.96 539 -115.92 539 -120 539 C-120 535.37 -120 531.74 -120 528 C-123.63 528 -127.26 528 -131 528 C-131 524.04 -131 520.08 -131 516 C-127.37 516 -123.74 516 -120 516 C-120 508.41 -120 500.82 -120 493 C-116.04 493 -112.08 493 -108 493 C-108 483.76 -108 474.52 -108 465 C-102.39 465 -96.78 465 -91 465 C-91 451.47 -91 437.94 -91 424 C-85.39 424 -79.78 424 -74 424 C-74 469.54 -74 515.08 -74 562 C-70.37 562 -66.74 562 -63 562 C-63 565.63 -63 569.26 -63 573 C-53.76 573 -44.52 573 -35 573 C-35 569.37 -35 565.74 -35 562 C-11.24 562 12.52 562 37 562 C37 480.49 37 398.98 37 315 C24.79 315 12.58 315 0 315 C0 358.56 0 402.12 0 447 C5.61 447 11.22 447 17 447 C17 452.94 17 458.88 17 465 C11.39 465 5.78 465 0 465 C-0.375 456.6875 -0.375 456.6875 -0.47802734 454.08081055 C-0.53144287 453.05661011 -0.53144287 453.05661011 -0.5859375 452.01171875 C-0.6173584 451.31522217 -0.6487793 450.61872559 -0.68115234 449.90112305 C-0.92118253 447.67467261 -0.92118253 447.67467261 -3 445 C-3.24609566 442.88171101 -3.24609566 442.88171101 -3.24050903 440.38728333 C-3.24463303 438.96751945 -3.24463303 438.96751945 -3.24884033 437.51907349 C-3.2380545 435.96432816 -3.2380545 435.96432816 -3.22705078 434.37817383 C-3.22734283 433.28533585 -3.22763489 432.19249786 -3.22793579 431.06654358 C-3.22654007 427.44662596 -3.2109673 423.826913 -3.1953125 420.20703125 C-3.19158324 417.70025241 -3.18873586 415.19347211 -3.18673706 412.68669128 C-3.17987545 406.75812501 -3.16410513 400.82962463 -3.14403808 394.90109223 C-3.11949512 387.48941313 -3.10874934 380.07772495 -3.09765625 372.66601562 C-3.07619413 359.44396564 -3.04100629 346.22200383 -3 333 C-13.56 333 -24.12 333 -35 333 C-35 327.06 -35 321.12 -35 315 C-59.09 315 -83.18 315 -108 315 C-108 309.39 -108 303.78 -108 298 C-95.13 298 -82.26 298 -69 298 C-69 279.19 -69 260.38 -69 241 C-74.61 241 -80.22 241 -86 241 C-86 199.09 -86 157.18 -86 114 C-80.39 114 -74.78 114 -69 114 C-69 99.15 -69 84.3 -69 69 C-63.39 69 -57.78 69 -52 69 C-52 57.45 -52 45.9 -52 34 C-46.39 34 -40.78 34 -35 34 C-35 30.37 -35 26.74 -35 23 C-29.06 23 -23.12 23 -17 23 C-17 19.04 -17 15.08 -17 11 C-11.39 11 -5.78 11 0 11 C0 7.37 0 3.74 0 0 Z " fill="#6D736F" transform="translate(236,6)"/>
<path d="M0 0 C30.36 0 60.72 0 92 0 C92 3.63 92 7.26 92 11 C97.61 11 103.22 11 109 11 C109 14.96 109 18.92 109 23 C114.94 23 120.88 23 127 23 C127 26.63 127 30.26 127 34 C132.61 34 138.22 34 144 34 C144 45.55 144 57.1 144 69 C149.61 69 155.22 69 161 69 C161 84.18 161 99.36 161 115 C166.61 115 172.22 115 178 115 C178 156.58 178 198.16 178 241 C172.39 241 166.78 241 161 241 C161 259.81 161 278.62 161 298 C173.87 298 186.74 298 200 298 C200 303.61 200 309.22 200 315 C175.91 315 151.82 315 127 315 C127 320.94 127 326.88 127 333 C115.45 333 103.9 333 92 333 C92 327.06 92 321.12 92 315 C79.79 315 67.58 315 55 315 C55 320.94 55 326.88 55 333 C49.06 333 43.12 333 37 333 C37 327.06 37 321.12 37 315 C24.79 315 12.58 315 0 315 C0 358.56 0 402.12 0 447 C5.61 447 11.22 447 17 447 C17 452.94 17 458.88 17 465 C11.39 465 5.78 465 0 465 C-0.375 456.6875 -0.375 456.6875 -0.47802734 454.08081055 C-0.53144287 453.05661011 -0.53144287 453.05661011 -0.5859375 452.01171875 C-0.63306885 450.96697388 -0.63306885 450.96697388 -0.68115234 449.90112305 C-0.92118253 447.67467261 -0.92118253 447.67467261 -3 445 C-3.24609566 442.88171101 -3.24609566 442.88171101 -3.24050903 440.38728333 C-3.24325836 439.44077408 -3.24600769 438.49426483 -3.24884033 437.51907349 C-3.2380545 435.96432816 -3.2380545 435.96432816 -3.22705078 434.37817383 C-3.22734283 433.28533585 -3.22763489 432.19249786 -3.22793579 431.06654358 C-3.22654007 427.44662596 -3.2109673 423.826913 -3.1953125 420.20703125 C-3.19158324 417.70025241 -3.18873586 415.19347211 -3.18673706 412.68669128 C-3.17987545 406.75812501 -3.16410513 400.82962463 -3.14403808 394.90109223 C-3.11949512 387.48941313 -3.10874934 380.07772495 -3.09765625 372.66601562 C-3.07619413 359.44396564 -3.04100629 346.22200383 -3 333 C-13.56 333 -24.12 333 -35 333 C-35 327.06 -35 321.12 -35 315 C-59.09 315 -83.18 315 -108 315 C-108 309.39 -108 303.78 -108 298 C-95.13 298 -82.26 298 -69 298 C-69 279.19 -69 260.38 -69 241 C-74.61 241 -80.22 241 -86 241 C-86 199.09 -86 157.18 -86 114 C-80.39 114 -74.78 114 -69 114 C-69 99.15 -69 84.3 -69 69 C-63.39 69 -57.78 69 -52 69 C-52 57.45 -52 45.9 -52 34 C-46.39 34 -40.78 34 -35 34 C-35 30.37 -35 26.74 -35 23 C-29.06 23 -23.12 23 -17 23 C-17 19.04 -17 15.08 -17 11 C-11.39 11 -5.78 11 0 11 C0 7.37 0 3.74 0 0 Z " fill="#6F7571" transform="translate(236,6)"/>
<path d="M0 0 C30.03 0 60.06 0 91 0 C91 5.94 91 11.88 91 18 C101.56 18 112.12 18 123 18 C123.15910081 26.58576146 123.31518079 35.1715232 123.46335983 43.75747299 C123.48770358 45.16435909 123.51221061 46.57124236 123.53688431 47.97812271 C123.81244795 63.70087126 124.04790343 79.41876931 123.99609375 95.14453125 C123.99079147 96.88851196 123.99079147 96.88851196 123.98538208 98.66772461 C123.96505103 104.14511385 123.92917374 109.62196541 123.875 115.09912109 C123.8631346 117.04915276 123.85140743 118.99918527 123.83984375 120.94921875 C123.81959389 122.27141167 123.81959389 122.27141167 123.79893494 123.62031555 C123.76197109 128.60610579 123.76197109 128.60610579 126 133 C126.22705078 134.90112305 126.22705078 134.90112305 126.1953125 137.01171875 C126.19031738 137.69451904 126.18532227 138.37731934 126.18017578 139.08081055 C126.16196777 139.94101807 126.14375977 140.80122559 126.125 141.6875 C126.08375 144.430625 126.0425 147.17375 126 150 C131.61 150 137.22 150 143 150 C143 144.06 143 138.12 143 132 C137.39 132 131.78 132 126 132 C126 88.44 126 44.88 126 0 C138.21 0 150.42 0 163 0 C163 81.51 163 163.02 163 247 C139.24 247 115.48 247 91 247 C91 250.63 91 254.26 91 258 C81.76 258 72.52 258 63 258 C63 254.37 63 250.74 63 247 C59.37 247 55.74 247 52 247 C52 201.46 52 155.92 52 109 C46.39 109 40.78 109 35 109 C35 122.53 35 136.06 35 150 C29.39 150 23.78 150 18 150 C18 159.24 18 168.48 18 178 C14.04 178 10.08 178 6 178 C6 185.59 6 193.18 6 201 C2.37 201 -1.26 201 -5 201 C-5 204.96 -5 208.92 -5 213 C-1.37 213 2.26 213 6 213 C6 216.63 6 220.26 6 224 C9.96 224 13.92 224 18 224 C18 227.63 18 231.26 18 235 C23.61 235 29.22 235 35 235 C35 238.96 35 242.92 35 247 C33.02 247 31.04 247 29 247 C29 250.63 29 254.26 29 258 C25.37 258 21.74 258 18 258 C18 261.96 18 265.92 18 270 C14.04 270 10.08 270 6 270 C6 277.59 6 285.18 6 293 C-1.59 293 -9.18 293 -17 293 C-17 289.04 -17 285.08 -17 281 C-20.63 281 -24.26 281 -28 281 C-28 277.37 -28 273.74 -28 270 C-31.96 270 -35.92 270 -40 270 C-40 266.04 -40 262.08 -40 258 C-43.63 258 -47.26 258 -51 258 C-51 254.37 -51 250.74 -51 247 C-54.96 247 -58.92 247 -63 247 C-63 243.04 -63 239.08 -63 235 C-66.63 235 -70.26 235 -74 235 C-74 208.93 -74 182.86 -74 156 C-70.37 156 -66.74 156 -63 156 C-63 148.08 -63 140.16 -63 132 C-59.04 132 -55.08 132 -51 132 C-51 107.58 -51 83.16 -51 58 C-45.39 58 -39.78 58 -34 58 C-34 44.8 -34 31.6 -34 18 C-22.78 18 -11.56 18 0 18 C0 12.06 0 6.12 0 0 Z " fill="#6E736F" transform="translate(110,321)"/>
<path d="M0 0 C3.63 0 7.26 0 11 0 C11 13.2 11 26.4 11 40 C7.04 40 3.08 40 -1 40 C-1 47.92 -1 55.84 -1 64 C-4.63 64 -8.26 64 -12 64 C-12 90.07 -12 116.14 -12 143 C-8.37 143 -4.74 143 -1 143 C-1 146.96 -1 150.92 -1 155 C2.96 155 6.92 155 11 155 C11 158.63 11 162.26 11 166 C14.63 166 18.26 166 22 166 C22 169.96 22 173.92 22 178 C25.96 178 29.92 178 34 178 C34 181.63 34 185.26 34 189 C37.63 189 41.26 189 45 189 C45 192.96 45 196.92 45 201 C52.59 201 60.18 201 68 201 C68 193.41 68 185.82 68 178 C71.96 178 75.92 178 80 178 C80 174.04 80 170.08 80 166 C83.63 166 87.26 166 91 166 C91 162.37 91 158.74 91 155 C92.98 155 94.96 155 97 155 C97 151.04 97 147.08 97 143 C91.39 143 85.78 143 80 143 C80 139.37 80 135.74 80 132 C76.04 132 72.08 132 68 132 C68 128.37 68 124.74 68 121 C64.37 121 60.74 121 57 121 C57 117.04 57 113.08 57 109 C60.63 109 64.26 109 68 109 C68 101.41 68 93.82 68 86 C71.96 86 75.92 86 80 86 C80 76.76 80 67.52 80 58 C85.61 58 91.22 58 97 58 C97 44.47 97 30.94 97 17 C102.61 17 108.22 17 114 17 C114 62.54 114 108.08 114 155 C117.63 155 121.26 155 125 155 C125 158.63 125 162.26 125 166 C134.24 166 143.48 166 153 166 C153 181.18 153 196.36 153 212 C147.72 212 142.44 212 137 212 C137 219.59 137 227.18 137 235 C133.04 235 129.08 235 125 235 C125 238.96 125 242.92 125 247 C121.37 247 117.74 247 114 247 C114 250.63 114 254.26 114 258 C108.39 258 102.78 258 97 258 C97 267.24 97 276.48 97 286 C102.61 286 108.22 286 114 286 C114 291.94 114 297.88 114 304 C193.2 304 272.4 304 354 304 C354 298.06 354 292.12 354 286 C359.61 286 365.22 286 371 286 C371 276.76 371 267.52 371 258 C365.39 258 359.78 258 354 258 C354 254.37 354 250.74 354 247 C350.37 247 346.74 247 343 247 C343 243.04 343 239.08 343 235 C339.04 235 335.08 235 331 235 C331 231.37 331 227.74 331 224 C327.37 224 323.74 224 320 224 C320 216.41 320 208.82 320 201 C316.37 201 312.74 201 309 201 C309 197.04 309 193.08 309 189 C310.98 189 312.96 189 315 189 C315 181.41 315 173.82 315 166 C324.24 166 333.48 166 343 166 C343 162.37 343 158.74 343 155 C346.63 155 350.26 155 354 155 C354 109.46 354 63.92 354 17 C359.94 17 365.88 17 372 17 C372 28.55 372 40.1 372 52 C373.65 52 375.3 52 377 52 C377 53.98 377 55.96 377 58 C380.63 58 384.26 58 388 58 C388 67.24 388 76.48 388 86 C391.96 86 395.92 86 400 86 C400 93.59 400 101.18 400 109 C403.63 109 407.26 109 411 109 C411 112.96 411 116.92 411 121 C407.37 121 403.74 121 400 121 C400 124.63 400 128.26 400 132 C396.04 132 392.08 132 388 132 C388 135.63 388 139.26 388 143 C382.72 143 377.44 143 372 143 C372 146.96 372 150.92 372 155 C373.65 155 375.3 155 377 155 C377 158.63 377 162.26 377 166 C380.63 166 384.26 166 388 166 C388 169.96 388 173.92 388 178 C391.96 178 395.92 178 400 178 C400 185.59 400 193.18 400 201 C407.59 201 415.18 201 423 201 C423 197.04 423 193.08 423 189 C426.63 189 430.26 189 434 189 C434 185.37 434 181.74 434 178 C437.96 178 441.92 178 446 178 C446 174.04 446 170.08 446 166 C449.63 166 453.26 166 457 166 C457 162.37 457 158.74 457 155 C460.96 155 464.92 155 469 155 C469 151.04 469 147.08 469 143 C472.63 143 476.26 143 480 143 C480 116.6 480 90.2 480 63 C476.37 63 472.74 63 469 63 C469 55.41 469 47.82 469 40 C465.04 40 461.08 40 457 40 C457 26.8 457 13.6 457 0 C460.63 0 464.26 0 468 0 C468 9.57 468 19.14 468 29 C471.96 29 475.92 29 480 29 C480 38.57 480 48.14 480 58 C483.96 58 487.92 58 492 58 C492 67.24 492 76.48 492 86 C495.63 86 499.26 86 503 86 C503 108.77 503 131.54 503 155 C499.37 155 495.74 155 492 155 C492 162.59 492 170.18 492 178 C488.04 178 484.08 178 480 178 C480 181.63 480 185.26 480 189 C476.04 189 472.08 189 468 189 C468 192.96 468 196.92 468 201 C464.37 201 460.74 201 457 201 C457 204.63 457 208.26 457 212 C453.37 212 449.74 212 446 212 C446 215.96 446 219.92 446 224 C438.41 224 430.82 224 423 224 C423 227.63 423 231.26 423 235 C415.41 235 407.82 235 400 235 C400 238.96 400 242.92 400 247 C396.04 247 392.08 247 388 247 C388 260.2 388 273.4 388 287 C382.39 287 376.78 287 371 287 C371 293.93 371 300.86 371 308 C280.58 308 190.16 308 97 308 C97 301.07 97 294.14 97 287 C91.39 287 85.78 287 80 287 C80 273.8 80 260.6 80 247 C76.04 247 72.08 247 68 247 C68 243.04 68 239.08 68 235 C60.41 235 52.82 235 45 235 C45 231.37 45 227.74 45 224 C37.41 224 29.82 224 22 224 C22 220.04 22 216.08 22 212 C18.37 212 14.74 212 11 212 C11 208.37 11 204.74 11 201 C7.37 201 3.74 201 0 201 C0 197.04 0 193.08 0 189 C-3.96 189 -7.92 189 -12 189 C-12 185.37 -12 181.74 -12 178 C-15.96 178 -19.92 178 -24 178 C-24 170.41 -24 162.82 -24 155 C-27.63 155 -31.26 155 -35 155 C-35 132.23 -35 109.46 -35 86 C-31.37 86 -27.74 86 -24 86 C-24 76.76 -24 67.52 -24 58 C-20.04 58 -16.08 58 -12 58 C-12 48.43 -12 38.86 -12 29 C-8.04 29 -4.08 29 0 29 C0 19.43 0 9.86 0 0 Z " fill="#010201" transform="translate(48,413)"/>
<path d="M0 0 C5.94 0 11.88 0 18 0 C18 75.57 18 151.14 18 229 C47.37 229 76.74 229 107 229 C107 221.41 107 213.82 107 206 C114.26 206 121.52 206 129 206 C129 213.59 129 221.18 129 229 C125.37 229 121.74 229 118 229 C118 232.63 118 236.26 118 240 C108.76 240 99.52 240 90 240 C90 247.59 90 255.18 90 263 C88.02 263 86.04 263 84 263 C84 266.96 84 270.92 84 275 C87.63 275 91.26 275 95 275 C95 282.59 95 290.18 95 298 C98.63 298 102.26 298 106 298 C106 301.63 106 305.26 106 309 C109.96 309 113.92 309 118 309 C118 312.96 118 316.92 118 321 C121.63 321 125.26 321 129 321 C129 324.63 129 328.26 129 332 C134.61 332 140.22 332 146 332 C146 341.24 146 350.48 146 360 C140.39 360 134.78 360 129 360 C129 365.94 129 371.88 129 378 C49.8 378 -29.4 378 -111 378 C-111 372.06 -111 366.12 -111 360 C-116.61 360 -122.22 360 -128 360 C-128 350.76 -128 341.52 -128 332 C-122.39 332 -116.78 332 -111 332 C-111 328.37 -111 324.74 -111 321 C-107.37 321 -103.74 321 -100 321 C-100 317.04 -100 313.08 -100 309 C-96.04 309 -92.08 309 -88 309 C-88 301.41 -88 293.82 -88 286 C-82.72 286 -77.44 286 -72 286 C-72 267.19 -72 248.38 -72 229 C-48.24 229 -24.48 229 0 229 C0 153.43 0 77.86 0 0 Z " fill="#3F4643" transform="translate(273,339)"/>
<path d="M0 0 C5.94 0 11.88 0 18 0 C18 3.96 18 7.92 18 12 C16.02 12 14.04 12 12 12 C12 15.63 12 19.26 12 23 C19.59 23 27.18 23 35 23 C35 26.96 35 30.92 35 35 C46.55 35 58.1 35 70 35 C70 38.63 70 42.26 70 46 C77.26 46 84.52 46 92 46 C92 42.37 92 38.74 92 35 C103.55 35 115.1 35 127 35 C127 31.04 127 27.08 127 23 C134.59 23 142.18 23 150 23 C150 19.37 150 15.74 150 12 C148.02 12 146.04 12 144 12 C144 8.04 144 4.08 144 0 C149.94 0 155.88 0 162 0 C162 3.96 162 7.92 162 12 C167.61 12 173.22 12 179 12 C179 49.95 179 87.9 179 127 C173.39 127 167.78 127 162 127 C162 138.22 162 149.44 162 161 C156.06 161 150.12 161 144 161 C144 166.61 144 172.22 144 178 C138.39 178 132.78 178 127 178 C127 183.61 127 189.22 127 195 C121.39 195 115.78 195 110 195 C110 200.61 110 206.22 110 212 C103.4 212 96.8 212 90 212 C90 217.94 90 223.88 90 230 C84.06 230 78.12 230 72 230 C72 224.06 72 218.12 72 212 C65.4 212 58.8 212 52 212 C52 206.39 52 200.78 52 195 C46.39 195 40.78 195 35 195 C35 189.39 35 183.78 35 178 C29.39 178 23.78 178 18 178 C18 172.39 18 166.78 18 161 C12.06 161 6.12 161 0 161 C0 149.78 0 138.56 0 127 C-5.61 127 -11.22 127 -17 127 C-17 89.05 -17 51.1 -17 12 C-11.39 12 -5.78 12 0 12 C0 8.04 0 4.08 0 0 Z " fill="#010101" transform="translate(201,109)"/>
<path d="M0 0 C7.26 0 14.52 0 22 0 C22 7.59 22 15.18 22 23 C25.96 23 29.92 23 34 23 C34 26.63 34 30.26 34 34 C49.18 34 64.36 34 80 34 C80 30.37 80 26.74 80 23 C83.96 23 87.92 23 92 23 C92 37.85 92 52.7 92 68 C88.04 68 84.08 68 80 68 C80 71.96 80 75.92 80 80 C78.02 80 76.04 80 74 80 C74 83.63 74 87.26 74 91 C72.02 91 70.04 91 68 91 C68 94.96 68 98.92 68 103 C64.37 103 60.74 103 57 103 C57 106.63 57 110.26 57 114 C51.39 114 45.78 114 40 114 C40 117.96 40 121.92 40 126 C20.86 126 1.72 126 -18 126 C-18 122.04 -18 118.08 -18 114 C-23.61 114 -29.22 114 -35 114 C-35 110.37 -35 106.74 -35 103 C-38.63 103 -42.26 103 -46 103 C-46 99.04 -46 95.08 -46 91 C-47.98 91 -49.96 91 -52 91 C-52 79.78 -52 68.56 -52 57 C-43.585 56.505 -43.585 56.505 -35 56 C-35 53.03 -35 50.06 -35 47 C-37.75006608 46.9729797 -40.49986546 46.95315117 -43.25 46.9375 C-44.02730469 46.92912109 -44.80460937 46.92074219 -45.60546875 46.91210938 C-46.35957031 46.90888672 -47.11367187 46.90566406 -47.890625 46.90234375 C-48.58188477 46.89710693 -49.27314453 46.89187012 -49.98535156 46.88647461 C-52.03832115 46.9221805 -52.03832115 46.9221805 -54.06933594 47.63110352 C-56 48 -56 48 -59 46 C-59.73046875 43.6171875 -59.73046875 43.6171875 -60.1875 40.875 C-60.34605469 39.96492188 -60.50460938 39.05484375 -60.66796875 38.1171875 C-60.77753906 37.41851562 -60.88710937 36.71984375 -61 36 C-63.97 35.67 -66.94 35.34 -70 35 C-70 31.04 -70 27.08 -70 23 C-66.04 23 -62.08 23 -58 23 C-58 26.63 -58 30.26 -58 34 C-42.82 34 -27.64 34 -12 34 C-12 30.37 -12 26.74 -12 23 C-8.04 23 -4.08 23 0 23 C0 15.41 0 7.82 0 0 Z " fill="#2A3032" transform="translate(271,167)"/>
<path d="M0 0 C11.33823423 0 22.68384609 0.29274038 34 1 C34 38.95 34 76.9 34 116 C39.61 116 45.22 116 51 116 C51 127.22 51 138.44 51 150 C56.94 150 62.88 150 69 150 C69 155.61 69 161.22 69 167 C74.61 167 80.22 167 86 167 C86 172.61 86 178.22 86 184 C91.61 184 97.22 184 103 184 C103 189.61 103 195.22 103 201 C97.39 201 91.78 201 86 201 C86 244.56 86 288.12 86 333 C91.61 333 97.22 333 103 333 C103 338.94 103 344.88 103 351 C97.39 351 91.78 351 86 351 C85.625 342.6875 85.625 342.6875 85.52197266 340.08081055 C85.46855713 339.05661011 85.46855713 339.05661011 85.4140625 338.01171875 C85.36693115 336.96697388 85.36693115 336.96697388 85.31884766 335.90112305 C85.07881747 333.67467261 85.07881747 333.67467261 83 331 C82.75390434 328.88171101 82.75390434 328.88171101 82.75949097 326.38728333 C82.75674164 325.44077408 82.75399231 324.49426483 82.75115967 323.51907349 C82.7619455 321.96432816 82.7619455 321.96432816 82.77294922 320.37817383 C82.77265717 319.28533585 82.77236511 318.19249786 82.77206421 317.06654358 C82.77345993 313.44662596 82.7890327 309.826913 82.8046875 306.20703125 C82.80841676 303.70025241 82.81126414 301.19347211 82.81326294 298.68669128 C82.82012455 292.75812501 82.83589487 286.82962463 82.85596192 280.90109223 C82.88050488 273.48941313 82.89125066 266.07772495 82.90234375 258.66601562 C82.92380587 245.44396564 82.95899371 232.22200383 83 219 C72.44 219 61.88 219 51 219 C51 213.06 51 207.12 51 201 C26.91 201 2.82 201 -22 201 C-22 195.39 -22 189.78 -22 184 C-9.13 184 3.74 184 17 184 C17 165.19 17 146.38 17 127 C11.39 127 5.78 127 0 127 C0 85.09 0 43.18 0 0 Z " fill="#6E746E" transform="translate(150,120)"/>
<path d="M0 0 C11.22 0 22.44 0 34 0 C34 41.58 34 83.16 34 126 C28.39 126 22.78 126 17 126 C17 144.81 17 163.62 17 183 C29.87 183 42.74 183 56 183 C56 188.61 56 194.22 56 200 C31.91 200 7.82 200 -17 200 C-17 205.94 -17 211.88 -17 218 C-28.55 218 -40.1 218 -52 218 C-52 212.06 -52 206.12 -52 200 C-57.61 200 -63.22 200 -69 200 C-69 194.39 -69 188.78 -69 183 C-63.39 183 -57.78 183 -52 183 C-52 177.39 -52 171.78 -52 166 C-46.39 166 -40.78 166 -35 166 C-35 160.39 -35 154.78 -35 149 C-29.06 149 -23.12 149 -17 149 C-17 137.78 -17 126.56 -17 115 C-11.39 115 -5.78 115 0 115 C0 77.05 0 39.1 0 0 Z " fill="#6E746D" transform="translate(380,121)"/>
<path d="M0 0 C17.82 0 35.64 0 54 0 C54 39.6 54 79.2 54 120 C44.1 120.495 44.1 120.495 34 121 C34 119.02 34 117.04 34 115 C22.78 115 11.56 115 0 115 C0 111.04 0 107.08 0 103 C-11.22 103 -22.44 103 -34 103 C-34 99.37 -34 95.74 -34 92 C-37.96 92 -41.92 92 -46 92 C-46 84.41 -46 76.82 -46 69 C-42.04 69 -38.08 69 -34 69 C-34 61.41 -34 53.82 -34 46 C-28.72 46 -23.44 46 -18 46 C-18 38.41 -18 30.82 -18 23 C-12.06 23 -6.12 23 0 23 C0 15.41 0 7.82 0 0 Z " fill="#6E746F" transform="translate(219,579)"/>
<path d="M0 0 C17.82 0 35.64 0 54 0 C54 7.59 54 15.18 54 23 C57.96 23 61.92 23 66 23 C66 26.96 66 30.92 66 35 C69.63 35 73.26 35 77 35 C77 42.59 77 50.18 77 58 C80.63 58 84.26 58 88 58 C88 61.63 88 65.26 88 69 C91.96 69 95.92 69 100 69 C100 76.59 100 84.18 100 92 C96.37 92 92.74 92 89 92 C89 95.63 89 99.26 89 103 C81.41 103 73.82 103 66 103 C66 106.96 66 110.92 66 115 C50.82 115 35.64 115 20 115 C20 107.41 20 99.82 20 92 C16.04 92 12.08 92 8 92 C8 76.82 8 61.64 8 46 C5.36 46 2.72 46 0 46 C0 30.82 0 15.64 0 0 Z " fill="#6D736E" transform="translate(291,579)"/>
<path d="M0 0 C23.43 0 46.86 0 71 0 C71 3.96 71 7.92 71 12 C76.94 12 82.88 12 89 12 C89 15.63 89 19.26 89 23 C94.61 23 100.22 23 106 23 C106 34.55 106 46.1 106 58 C111.61 58 117.22 58 123 58 C123 73.18 123 88.36 123 104 C111.78 104 100.56 104 89 104 C89 100.04 89 96.08 89 92 C83.06 92 77.12 92 71 92 C71 84.41 71 76.82 71 69 C65.39 69 59.78 69 54 69 C54 65.37 54 61.74 54 58 C36.18 58 18.36 58 0 58 C0 38.86 0 19.72 0 0 Z " fill="#686E6A" transform="translate(274,17)"/>
<path d="M0 0 C3.63 0 7.26 0 11 0 C11 13.2 11 26.4 11 40 C7.04 40 3.08 40 -1 40 C-1 47.92 -1 55.84 -1 64 C-4.63 64 -8.26 64 -12 64 C-12 90.07 -12 116.14 -12 143 C-8.37 143 -4.74 143 -1 143 C-1 146.96 -1 150.92 -1 155 C2.96 155 6.92 155 11 155 C11 158.63 11 162.26 11 166 C14.63 166 18.26 166 22 166 C22 169.96 22 173.92 22 178 C25.96 178 29.92 178 34 178 C34 181.63 34 185.26 34 189 C37.63 189 41.26 189 45 189 C45 192.96 45 196.92 45 201 C48.96 201 52.92 201 57 201 C57 208.59 57 216.18 57 224 C45.45 224 33.9 224 22 224 C22 220.04 22 216.08 22 212 C18.37 212 14.74 212 11 212 C11 208.37 11 204.74 11 201 C7.37 201 3.74 201 0 201 C0 197.04 0 193.08 0 189 C-3.96 189 -7.92 189 -12 189 C-12 185.37 -12 181.74 -12 178 C-15.96 178 -19.92 178 -24 178 C-24 170.41 -24 162.82 -24 155 C-27.63 155 -31.26 155 -35 155 C-35 132.23 -35 109.46 -35 86 C-31.37 86 -27.74 86 -24 86 C-24 76.76 -24 67.52 -24 58 C-20.04 58 -16.08 58 -12 58 C-12 48.43 -12 38.86 -12 29 C-8.04 29 -4.08 29 0 29 C0 19.43 0 9.86 0 0 Z " fill="#4D524F" transform="translate(48,413)"/>
<path d="M0 0 C3.63 0 7.26 0 11 0 C11 9.57 11 19.14 11 29 C14.96 29 18.92 29 23 29 C23 38.57 23 48.14 23 58 C26.96 58 30.92 58 35 58 C35 67.24 35 76.48 35 86 C38.63 86 42.26 86 46 86 C46 108.77 46 131.54 46 155 C42.37 155 38.74 155 35 155 C35 162.59 35 170.18 35 178 C31.04 178 27.08 178 23 178 C23 181.63 23 185.26 23 189 C19.04 189 15.08 189 11 189 C11 192.96 11 196.92 11 201 C7.37 201 3.74 201 0 201 C0 204.63 0 208.26 0 212 C-3.63 212 -7.26 212 -11 212 C-11 215.96 -11 219.92 -11 224 C-22.55 224 -34.1 224 -46 224 C-46 216.41 -46 208.82 -46 201 C-42.04 201 -38.08 201 -34 201 C-34 197.04 -34 193.08 -34 189 C-30.37 189 -26.74 189 -23 189 C-23 185.37 -23 181.74 -23 178 C-19.04 178 -15.08 178 -11 178 C-11 174.04 -11 170.08 -11 166 C-7.37 166 -3.74 166 0 166 C0 162.37 0 158.74 0 155 C3.96 155 7.92 155 12 155 C12 151.04 12 147.08 12 143 C15.63 143 19.26 143 23 143 C23 116.6 23 90.2 23 63 C19.37 63 15.74 63 12 63 C12 55.41 12 47.82 12 40 C8.04 40 4.08 40 0 40 C0 26.8 0 13.6 0 0 Z " fill="#4E5350" transform="translate(505,413)"/>
<path d="M0 0 C30.36 0 60.72 0 92 0 C92 3.63 92 7.26 92 11 C97.61 11 103.22 11 109 11 C109 22.55 109 34.1 109 46 C110.98 46 112.96 46 115 46 C115 49.63 115 53.26 115 57 C107.41 57 99.82 57 92 57 C92 60.96 92 64.92 92 69 C80.45 69 68.9 69 57 69 C57 72.63 57 76.26 57 80 C49.74 80 42.48 80 35 80 C35 76.37 35 72.74 35 69 C23.45 69 11.9 69 0 69 C0 61.41 0 53.82 0 46 C30.36 46 60.72 46 92 46 C92 42.04 92 38.08 92 34 C61.64 34 31.28 34 0 34 C0 24 0 24 1 23 C3.7998972 22.90480632 6.57506174 22.87446056 9.37524414 22.88647461 C10.25321152 22.88632858 11.13117889 22.88618256 12.03575134 22.8860321 C14.95224435 22.88673156 17.86867433 22.89452545 20.78515625 22.90234375 C22.80154892 22.90420782 24.81794204 22.90563177 26.83433533 22.90663147 C32.15265138 22.91045756 37.4709403 22.92028861 42.78924561 22.93133545 C48.21170688 22.94154762 53.63417252 22.94612867 59.05664062 22.95117188 C69.70443903 22.9619108 80.35221726 22.97898831 91 23 C91 20.03 91 17.06 91 14 C90.01 13.505 90.01 13.505 89 13 C89.66 13 90.32 13 91 13 C91 12.34 91 11.68 91 11 C60.97 11 30.94 11 0 11 C0 7.37 0 3.74 0 0 Z " fill="#1C2741" transform="translate(236,75)"/>
<path d="M0 0 C3.63 0 7.26 0 11 0 C11 3.96 11 7.92 11 12 C12.98 12 14.96 12 17 12 C17 15.63 17 19.26 17 23 C18.98 23 20.96 23 23 23 C23 26.96 23 30.92 23 35 C26.63 35 30.26 35 34 35 C34 38.63 34 42.26 34 46 C39.61 46 45.22 46 51 46 C51 49.96 51 53.92 51 58 C70.14 58 89.28 58 109 58 C109 54.04 109 50.08 109 46 C114.61 46 120.22 46 126 46 C126 42.37 126 38.74 126 35 C129.63 35 133.26 35 137 35 C137 31.04 137 27.08 137 23 C138.98 23 140.96 23 143 23 C143 19.37 143 15.74 143 12 C144.98 12 146.96 12 149 12 C149 8.04 149 4.08 149 0 C152.96 0 156.92 0 161 0 C161 11.55 161 23.1 161 35 C155.06 35 149.12 35 143 35 C143 40.61 143 46.22 143 52 C137.39 52 131.78 52 126 52 C126 57.61 126 63.22 126 69 C120.39 69 114.78 69 109 69 C109 74.61 109 80.22 109 86 C102.4 86 95.8 86 89 86 C89 91.94 89 97.88 89 104 C83.06 104 77.12 104 71 104 C71 98.06 71 92.12 71 86 C64.4 86 57.8 86 51 86 C51 80.39 51 74.78 51 69 C45.39 69 39.78 69 34 69 C34 63.39 34 57.78 34 52 C28.39 52 22.78 52 17 52 C17 46.39 17 40.78 17 35 C11.39 35 5.78 35 0 35 C0 23.45 0 11.9 0 0 Z " fill="#010101" transform="translate(202,235)"/>
<path d="M0 0 C5.61 0 11.22 0 17 0 C17 13.2 17 26.4 17 40 C22.61 40 28.22 40 34 40 C34 45.61 34 51.22 34 57 C39.94 57 45.88 57 52 57 C52 62.61 52 68.22 52 74 C57.61 74 63.22 74 69 74 C69 117.56 69 161.12 69 206 C74.61 206 80.22 206 86 206 C86 211.94 86 217.88 86 224 C80.39 224 74.78 224 69 224 C68.625 215.6875 68.625 215.6875 68.52197266 213.08081055 C68.46855713 212.05661011 68.46855713 212.05661011 68.4140625 211.01171875 C68.3826416 210.31522217 68.3512207 209.61872559 68.31884766 208.90112305 C68.07881747 206.67467261 68.07881747 206.67467261 66 204 C65.75390434 201.88171101 65.75390434 201.88171101 65.75949097 199.38728333 C65.75674164 198.44077408 65.75399231 197.49426483 65.75115967 196.51907349 C65.7619455 194.96432816 65.7619455 194.96432816 65.77294922 193.37817383 C65.77265717 192.28533585 65.77236511 191.19249786 65.77206421 190.06654358 C65.77345993 186.44662596 65.7890327 182.826913 65.8046875 179.20703125 C65.80841676 176.70025241 65.81126414 174.19347211 65.81326294 171.68669128 C65.82012455 165.75812501 65.83589487 159.82962463 65.85596192 153.90109223 C65.88050488 146.48941313 65.89125066 139.07772495 65.90234375 131.66601562 C65.92380587 118.44396564 65.95899371 105.22200383 66 92 C55.44 92 44.88 92 34 92 C34 86.06 34 80.12 34 74 C9.91 74 -14.18 74 -39 74 C-39 68.39 -39 62.78 -39 57 C-26.13 57 -13.26 57 0 57 C0 38.19 0 19.38 0 0 Z " fill="#4D524A" transform="translate(167,247)"/>
<path d="M0 0 C5.61 0 11.22 0 17 0 C17 18.81 17 37.62 17 57 C29.87 57 42.74 57 56 57 C56 62.61 56 68.22 56 74 C31.91 74 7.82 74 -17 74 C-17 79.94 -17 85.88 -17 92 C-28.55 92 -40.1 92 -52 92 C-52 86.06 -52 80.12 -52 74 C-46.39 74 -40.78 74 -35 74 C-35 68.39 -35 62.78 -35 57 C-29.06 57 -23.12 57 -17 57 C-17 51.39 -17 45.78 -17 40 C-11.39 40 -5.78 40 0 40 C0 26.8 0 13.6 0 0 Z " fill="#4D524B" transform="translate(380,247)"/>
<path d="M0 0 C35.64 0 71.28 0 108 0 C108 3.96 108 7.92 108 12 C63.45 12.495 63.45 12.495 18 13 C17.67 16.3 17.34 19.6 17 23 C47.36 23 77.72 23 109 23 C109 26.96 109 30.92 109 35 C78.64 35 48.28 35 17 35 C17 38.63 17 42.26 17 46 C9.41 46 1.82 46 -6 46 C-6 42.37 -6 38.74 -6 35 C-4.02 35 -2.04 35 0 35 C0 23.45 0 11.9 0 0 Z " fill="#28344C" transform="translate(219,86)"/>
<path d="M0 0 C11.22 0 22.44 0 34 0 C34 7.59 34 15.18 34 23 C37.96 23 41.92 23 46 23 C46 30.59 46 38.18 46 46 C49.63 46 53.26 46 57 46 C57 49.63 57 53.26 57 57 C53.37 57 49.74 57 46 57 C46 60.96 46 64.92 46 69 C38.41 69 30.82 69 23 69 C23 65.04 23 61.08 23 57 C19.04 57 15.08 57 11 57 C11 53.37 11 49.74 11 46 C7.37 46 3.74 46 0 46 C0 30.82 0 15.64 0 0 Z " fill="#1C201F" transform="translate(368,591)"/>
<path d="M0 0 C3.63 0 7.26 0 11 0 C11 3.63 11 7.26 11 11 C14.96 11 18.92 11 23 11 C23 14.63 23 18.26 23 22 C34.22 22 45.44 22 57 22 C57 25.96 57 29.92 57 34 C68.22 34 79.44 34 91 34 C91 37.63 91 41.26 91 45 C68.56 45 46.12 45 23 45 C23 41.37 23 37.74 23 34 C15.41 34 7.82 34 0 34 C0.33 35.32 0.66 36.64 1 38 C0 39 0 39 -3.81640625 39.09765625 C-5.39847047 39.09191138 -6.98051031 39.07889593 -8.5625 39.0625 C-12.7390625 39.0315625 -12.7390625 39.0315625 -17 39 C-17 29.76 -17 20.52 -17 11 C-11.39 11 -5.78 11 0 11 C0 7.37 0 3.74 0 0 Z " fill="#4E5350" transform="translate(162,660)"/>
<path d="M0 0 C5.61 0 11.22 0 17 0 C17 43.56 17 87.12 17 132 C11.39 132 5.78 132 0 132 C0 88.44 0 44.88 0 0 Z " fill="#DBC441" transform="translate(236,321)"/>
<path d="M0 0 C5.61 0 11.22 0 17 0 C17 43.56 17 87.12 17 132 C11.39 132 5.78 132 0 132 C0 88.44 0 44.88 0 0 Z " fill="#D8C248" transform="translate(311,321)"/>
<path d="M0 0 C11.22 0 22.44 0 34 0 C34 3.96 34 7.92 34 12 C45.22 12 56.44 12 68 12 C68 15.63 68 19.26 68 23 C64.37 23 60.74 23 57 23 C57 26.96 57 30.92 57 35 C53.04 35 49.08 35 45 35 C45 38.63 45 42.26 45 46 C41.37 46 37.74 46 34 46 C34 49.96 34 53.92 34 58 C30.04 58 26.08 58 22 58 C22 46.45 22 34.9 22 23 C18.37 23 14.74 23 11 23 C11 30.59 11 38.18 11 46 C7.37 46 3.74 46 0 46 C0 30.82 0 15.64 0 0 Z " fill="#1B1F1F" transform="translate(128,579)"/>
<path d="M0 0 C5.61 0 11.22 0 17 0 C17 41.58 17 83.16 17 126 C11.39 126 5.78 126 0 126 C0 84.42 0 42.84 0 0 Z " fill="#010101" transform="translate(397,121)"/>
<path d="M0 0 C5.61 0 11.22 0 17 0 C17 41.58 17 83.16 17 126 C11.39 126 5.78 126 0 126 C0 84.42 0 42.84 0 0 Z " fill="#6F746E" transform="translate(380,121)"/>
<path d="M0 0 C5.61 0 11.22 0 17 0 C17 41.58 17 83.16 17 126 C11.39 126 5.78 126 0 126 C0 84.42 0 42.84 0 0 Z " fill="#010201" transform="translate(150,121)"/>
<path d="M0 0 C15.18 0 30.36 0 46 0 C46 15.18 46 30.36 46 46 C30.82 46 15.64 46 0 46 C0 30.82 0 15.64 0 0 Z " fill="#141A19" transform="translate(305,155)"/>
<path d="M0 0 C15.18 0 30.36 0 46 0 C46 15.18 46 30.36 46 46 C30.82 46 15.64 46 0 46 C0 30.82 0 15.64 0 0 Z " fill="#131B1A" transform="translate(213,155)"/>
<path d="M0 0 C11.55 0 23.1 0 35 0 C35 5.94 35 11.88 35 18 C40.61 18 46.22 18 52 18 C52 31.2 52 44.4 52 58 C46.39 58 40.78 58 35 58 C35 52.39 35 46.78 35 41 C23.45 41 11.9 41 0 41 C0 27.47 0 13.94 0 0 Z " fill="#4D544F" transform="translate(436,321)"/>
<path d="M0 0 C5.94 0 11.88 0 18 0 C18 13.53 18 27.06 18 41 C6.45 41 -5.1 41 -17 41 C-17 46.61 -17 52.22 -17 58 C-22.61 58 -28.22 58 -34 58 C-34 44.8 -34 31.6 -34 18 C-22.78 18 -11.56 18 0 18 C0 12.06 0 6.12 0 0 Z " fill="#4C524E" transform="translate(110,321)"/>
<path d="M0 0 C7.59 0 15.18 0 23 0 C23 3.63 23 7.26 23 11 C45.44 11 67.88 11 91 11 C91 9.35 91 7.7 91 6 C92 5 92 5 93.85766602 4.88647461 C95.04380493 4.89432983 95.04380493 4.89432983 96.25390625 4.90234375 C97.53491211 4.90717773 97.53491211 4.90717773 98.84179688 4.91210938 C99.73962891 4.92048828 100.63746094 4.92886719 101.5625 4.9375 C102.46419922 4.94201172 103.36589844 4.94652344 104.29492188 4.95117188 C106.52997589 4.96299756 108.76499602 4.98093362 111 5 C111 10.94 111 16.88 111 23 C74.37 23 37.74 23 0 23 C0 15.41 0 7.82 0 0 Z " fill="#505651" transform="translate(162,694)"/>
<path d="M0 0 C5.94 0 11.88 0 18 0 C18 5.61 18 11.22 18 17 C23.61 17 29.22 17 35 17 C35 22.61 35 28.22 35 34 C40.61 34 46.22 34 52 34 C52 39.61 52 45.22 52 51 C40.78 51 29.56 51 18 51 C18 45.39 18 39.78 18 34 C12.06 34 6.12 34 0 34 C0 22.78 0 11.56 0 0 Z " fill="#6C736D" transform="translate(201,270)"/>
<path d="M0 0 C3.96 0 7.92 0 12 0 C12 7.59 12 15.18 12 23 C8.04 23 4.08 23 0 23 C0 26.63 0 30.26 0 34 C-3.96 34 -7.92 34 -12 34 C-12 37.96 -12 41.92 -12 46 C-15.63 46 -19.26 46 -23 46 C-23 49.63 -23 53.26 -23 57 C-26.63 57 -30.26 57 -34 57 C-34 60.96 -34 64.92 -34 69 C-41.59 69 -49.18 69 -57 69 C-57 65.04 -57 61.08 -57 57 C-53.37 57 -49.74 57 -46 57 C-46 53.37 -46 49.74 -46 46 C-42.04 46 -38.08 46 -34 46 C-34 42.04 -34 38.08 -34 34 C-30.37 34 -26.74 34 -23 34 C-23 30.37 -23 26.74 -23 23 C-19.04 23 -15.08 23 -11 23 C-11 19.04 -11 15.08 -11 11 C-7.37 11 -3.74 11 0 11 C0 7.37 0 3.74 0 0 Z " fill="#010201" transform="translate(528,568)"/>
<path d="M0 0 C3.96 0 7.92 0 12 0 C12 3.63 12 7.26 12 11 C15.63 11 19.26 11 23 11 C23 14.96 23 18.92 23 23 C26.96 23 30.92 23 35 23 C35 26.63 35 30.26 35 34 C38.63 34 42.26 34 46 34 C46 37.96 46 41.92 46 46 C49.96 46 53.92 46 58 46 C58 49.63 58 53.26 58 57 C61.63 57 65.26 57 69 57 C69 60.96 69 64.92 69 69 C61.41 69 53.82 69 46 69 C46 65.04 46 61.08 46 57 C42.37 57 38.74 57 35 57 C35 53.37 35 49.74 35 46 C31.37 46 27.74 46 24 46 C24 42.04 24 38.08 24 34 C20.04 34 16.08 34 12 34 C12 30.37 12 26.74 12 23 C8.04 23 4.08 23 0 23 C0 15.41 0 7.82 0 0 Z " fill="#010201" transform="translate(24,568)"/>
<path d="M0 0 C30.36 0 60.72 0 92 0 C92 3.96 92 7.92 92 12 C80.45 12 68.9 12 57 12 C57 15.63 57 19.26 57 23 C49.74 23 42.48 23 35 23 C35 19.37 35 15.74 35 12 C23.45 12 11.9 12 0 12 C0 8.04 0 4.08 0 0 Z " fill="#A9785B" transform="translate(236,132)"/>
<path d="M0 0 C14.85 0 29.7 0 45 0 C45 3.96 45 7.92 45 12 C37.74 12 30.48 12 23 12 C23 15.63 23 19.26 23 23 C0.23 23 -22.54 23 -46 23 C-46 19.37 -46 15.74 -46 12 C-30.82 12 -15.64 12 0 12 C0 8.04 0 4.08 0 0 Z " fill="#010302" transform="translate(357,682)"/>
<path d="M0 0 C5.61 0 11.22 0 17 0 C17 18.81 17 37.62 17 57 C5.78 57 -5.44 57 -17 57 C-17 51.39 -17 45.78 -17 40 C-11.39 40 -5.78 40 0 40 C0 26.8 0 13.6 0 0 Z " fill="#000101" transform="translate(380,247)"/>
<path d="M0 0 C5.61 0 11.22 0 17 0 C17 13.2 17 26.4 17 40 C22.61 40 28.22 40 34 40 C34 45.61 34 51.22 34 57 C22.78 57 11.56 57 0 57 C0 38.19 0 19.38 0 0 Z " fill="#000101" transform="translate(167,247)"/>
<path d="M0 0 C3.63 0 7.26 0 11 0 C11 3.63 11 7.26 11 11 C14.96 11 18.92 11 23 11 C23 7.37 23 3.74 23 0 C30.59 0 38.18 0 46 0 C46 3.63 46 7.26 46 11 C49.63 11 53.26 11 57 11 C57 14.96 57 18.92 57 23 C45.78 23 34.56 23 23 23 C23 26.96 23 30.92 23 35 C19.04 35 15.08 35 11 35 C11 31.04 11 27.08 11 23 C7.37 23 3.74 23 0 23 C0 15.41 0 7.82 0 0 Z " fill="#4C514E" transform="translate(448,499)"/>
<path d="M0 0 C7.59 0 15.18 0 23 0 C23 3.63 23 7.26 23 11 C26.96 11 30.92 11 35 11 C35 7.37 35 3.74 35 0 C38.63 0 42.26 0 46 0 C46 7.59 46 15.18 46 23 C42.37 23 38.74 23 35 23 C35 26.96 35 30.92 35 35 C31.04 35 27.08 35 23 35 C23 31.04 23 27.08 23 23 C11.78 23 0.56 23 -11 23 C-11 19.04 -11 15.08 -11 11 C-7.37 11 -3.74 11 0 11 C0 7.37 0 3.74 0 0 Z " fill="#4B524D" transform="translate(70,499)"/>
<path d="M0 0 C3.96 0 7.92 0 12 0 C12 11.22 12 22.44 12 34 C8.04 34 4.08 34 0 34 C0 37.96 0 41.92 0 46 C-7.59 46 -15.18 46 -23 46 C-23 42.04 -23 38.08 -23 34 C-26.63 34 -30.26 34 -34 34 C-34 30.37 -34 26.74 -34 23 C-26.41 23 -18.82 23 -11 23 C-11 19.04 -11 15.08 -11 11 C-7.37 11 -3.74 11 0 11 C0 7.37 0 3.74 0 0 Z " fill="#1B1F1E" transform="translate(173,614)"/>
<path d="M0 0 C11.22 0 22.44 0 34 0 C34 15.18 34 30.36 34 46 C26.41 46 18.82 46 11 46 C11 34.45 11 22.9 11 11 C7.37 11 3.74 11 0 11 C0 7.37 0 3.74 0 0 Z " fill="#1B1F1E" transform="translate(414,591)"/>
<path d="M0 0 C11.22 0 22.44 0 34 0 C34 7.59 34 15.18 34 23 C37.96 23 41.92 23 46 23 C46 30.59 46 38.18 46 46 C42.04 46 38.08 46 34 46 C34 42.04 34 38.08 34 34 C30.37 34 26.74 34 23 34 C23 30.37 23 26.74 23 23 C15.41 23 7.82 23 0 23 C0 15.41 0 7.82 0 0 Z " fill="#363B3A" transform="translate(368,591)"/>
<path d="M0 0 C3.63 0 7.26 0 11 0 C11 13.2 11 26.4 11 40 C7.04 40 3.08 40 -1 40 C-1 47.92 -1 55.84 -1 64 C-4.63 64 -8.26 64 -12 64 C-12 71.26 -12 78.52 -12 86 C-15.96 86 -19.92 86 -24 86 C-24 76.76 -24 67.52 -24 58 C-20.04 58 -16.08 58 -12 58 C-12 48.43 -12 38.86 -12 29 C-8.04 29 -4.08 29 0 29 C0 19.43 0 9.86 0 0 Z " fill="#010201" transform="translate(48,413)"/>
<path d="M0 0 C3.63 0 7.26 0 11 0 C11 9.57 11 19.14 11 29 C14.96 29 18.92 29 23 29 C23 38.57 23 48.14 23 58 C26.96 58 30.92 58 35 58 C35 67.24 35 76.48 35 86 C31.04 86 27.08 86 23 86 C23 78.41 23 70.82 23 63 C19.37 63 15.74 63 12 63 C12 55.41 12 47.82 12 40 C8.04 40 4.08 40 0 40 C0 26.8 0 13.6 0 0 Z " fill="#000101" transform="translate(505,413)"/>
<path d="M0 0 C5.61 0 11.22 0 17 0 C17 13.53 17 27.06 17 41 C11.39 41 5.78 41 0 41 C0 50.24 0 59.48 0 69 C-3.96 69 -7.92 69 -12 69 C-12 57.78 -12 46.56 -12 35 C-8.04 35 -4.08 35 0 35 C0 23.45 0 11.9 0 0 Z " fill="#4E5450" transform="translate(128,430)"/>
<path d="M0 0 C30.36 0 60.72 0 92 0 C92 3.96 92 7.92 92 12 C61.64 12 31.28 12 0 12 C0 8.04 0 4.08 0 0 Z " fill="#3B4663" transform="translate(236,109)"/>
<path d="M0 0 C3.96 0 7.92 0 12 0 C12 11.22 12 22.44 12 34 C15.63 34 19.26 34 23 34 C23 26.41 23 18.82 23 11 C26.63 11 30.26 11 34 11 C34 22.55 34 34.1 34 46 C22.78 46 11.56 46 0 46 C0 30.82 0 15.64 0 0 Z " fill="#1C201F" transform="translate(116,591)"/>
<path d="M0 0 C11.22 0 22.44 0 34 0 C34 3.63 34 7.26 34 11 C30.37 11 26.74 11 23 11 C23 14.96 23 18.92 23 23 C19.04 23 15.08 23 11 23 C11 26.63 11 30.26 11 34 C7.37 34 3.74 34 0 34 C0 37.96 0 41.92 0 46 C-3.96 46 -7.92 46 -12 46 C-12 37.75 -12 29.5 -12 21 C-6.06 21.99 -6.06 21.99 0 23 C0 15.41 0 7.82 0 0 Z " fill="#353A39" transform="translate(162,591)"/>
<path d="M0 0 C6.6 0 13.2 0 20 0 C20 43.56 20 87.12 20 132 C25.61 132 31.22 132 37 132 C37 137.94 37 143.88 37 150 C31.39 150 25.78 150 20 150 C20 144.72 20 139.44 20 134 C19.01 133.67 18.02 133.34 17 133 C16.1190076 126.95890925 15.84726926 121.1007632 15.875 115 C15.87113281 114.14921875 15.86726563 113.2984375 15.86328125 112.421875 C15.8694355 108.40930427 16.00273911 104.51386845 16.54296875 100.53515625 C17.18344068 97.146637 17.18344068 97.146637 16.4375 94.4375 C15.81218147 90.95358249 16.8977532 88.3067404 18 85 C17.34 85 16.68 85 16 85 C16 62.89 16 40.78 16 18 C10.72 18 5.44 18 0 18 C0 12.06 0 6.12 0 0 Z " fill="#7A784F" transform="translate(291,321)"/>
<path d="M0 0 C5.28 0 10.56 0 16 0 C16 11.55 16 23.1 16 35 C19.96 35 23.92 35 28 35 C28 46.22 28 57.44 28 69 C24.04 69 20.08 69 16 69 C16 59.76 16 50.52 16 41 C12.37 41 8.74 41 5 41 C5 39.02 5 37.04 5 35 C3.35 35 1.7 35 0 35 C0 23.45 0 11.9 0 0 Z " fill="#4D534F" transform="translate(420,430)"/>
<path d="M0 0 C30.36 0 60.72 0 92 0 C92 3.63 92 7.26 92 11 C61.64 11 31.28 11 0 11 C0 7.37 0 3.74 0 0 Z " fill="#020104" transform="translate(236,121)"/>
<path d="M0 0 C30.36 0 60.72 0 92 0 C92 3.63 92 7.26 92 11 C61.64 11 31.28 11 0 11 C0 7.37 0 3.74 0 0 Z " fill="#000202" transform="translate(236,75)"/>
<path d="M0 0 C30.36 0 60.72 0 92 0 C92 3.63 92 7.26 92 11 C61.64 11 31.28 11 0 11 C0 7.37 0 3.74 0 0 Z " fill="#000201" transform="translate(236,6)"/>
<path d="M0 0 C3.96 0 7.92 0 12 0 C12 3.63 12 7.26 12 11 C27.18 11 42.36 11 58 11 C58 7.37 58 3.74 58 0 C61.96 0 65.92 0 70 0 C70 7.26 70 14.52 70 22 C67.55722656 22.06058594 65.11445313 22.12117188 62.59765625 22.18359375 C60.24125937 22.24533798 57.8849127 22.30874433 55.52856445 22.37231445 C53.88635697 22.41572297 52.24410261 22.45739358 50.60180664 22.49731445 C48.24611255 22.5548744 45.89065572 22.61860892 43.53515625 22.68359375 C42.79660904 22.70030624 42.05806183 22.71701874 41.2971344 22.73423767 C37.85699373 22.53548013 37.85699373 22.53548013 35 24 C31.44371205 24.06046823 27.90135279 24.02024775 24.34570312 23.9609375 C23.59611328 23.95320313 22.84652344 23.94546875 22.07421875 23.9375 C21.04687622 23.92009766 21.04687622 23.92009766 19.9987793 23.90234375 C17.95940028 23.92049468 17.95940028 23.92049468 15.93286133 24.62890625 C14 25 14 25 11 23 C10.26953125 20.6171875 10.26953125 20.6171875 9.8125 17.875 C9.65394531 16.96492188 9.49539062 16.05484375 9.33203125 15.1171875 C9.22246094 14.41851562 9.11289063 13.71984375 9 13 C6.03 12.67 3.06 12.34 0 12 C0 8.04 0 4.08 0 0 Z " fill="#181C1A" transform="translate(201,190)"/>
<path d="M0 0 C3.96 0 7.92 0 12 0 C12 14.85 12 29.7 12 45 C8.04 45 4.08 45 0 45 C0 48.96 0 52.92 0 57 C-1.98 57 -3.96 57 -6 57 C-6 49.41 -6 41.82 -6 34 C-11.61 34 -17.22 34 -23 34 C-23 30.04 -23 26.08 -23 22 C-15.41 22 -7.82 22 0 22 C0 14.74 0 7.48 0 0 Z " fill="#181E1C" transform="translate(351,190)"/>
<path d="M0 0 C0.33 0 0.66 0 1 0 C1 37.62 1 75.24 1 114 C6.28 114 11.56 114 17 114 C17 103.11 17 92.22 17 81 C19.97 81 22.94 81 26 81 C27.65376711 82.65376711 27.63471208 84.80948364 28.0625 87.0625 C28.32740234 88.44115234 28.32740234 88.44115234 28.59765625 89.84765625 C28.73042969 90.55792969 28.86320312 91.26820313 29 92 C32.58327753 93.00217064 32.58327753 93.00217064 36 92 C41.41301783 91.62516781 46.6670318 92.09226073 52 93 C52.495 97.95 52.495 97.95 53 103 C47.06 103 41.12 103 35 103 C35 110.59 35 118.18 35 126 C33.02 126 31.04 126 29 126 C29 122.04 29 118.08 29 114 C25.37 114 21.74 114 18 114 C18 125.55 18 137.1 18 149 C17.67 149 17.34 149 17 149 C17 137.78 17 126.56 17 115 C11.39 115 5.78 115 0 115 C0 77.05 0 39.1 0 0 Z " fill="#181C1B" transform="translate(184,121)"/>
<path d="M0 0 C5.61 0 11.22 0 17 0 C17 11.22 17 22.44 17 34 C5.78 34 -5.44 34 -17 34 C-17 28.39 -17 22.78 -17 17 C-11.39 17 -5.78 17 0 17 C0 11.39 0 5.78 0 0 Z " fill="#6B716A" transform="translate(328,287)"/>
<path d="M0 0 C5.61 0 11.22 0 17 0 C17 16.83 17 33.66 17 51 C11.39 51 5.78 51 0 51 C0 34.17 0 17.34 0 0 Z " fill="#6B716B" transform="translate(184,236)"/>
<path d="M0 0 C7.26 0 14.52 0 22 0 C22 7.59 22 15.18 22 23 C18.37 23 14.74 23 11 23 C11 26.63 11 30.26 11 34 C1.76 34 -7.48 34 -17 34 C-17 30.37 -17 26.74 -17 23 C-11.39 23 -5.78 23 0 23 C0 15.41 0 7.82 0 0 Z " fill="#4F5450" transform="translate(380,545)"/>
<path d="M0 0 C6.6 0 13.2 0 20 0 C20 5.94 20 11.88 20 18 C15.05 18.33 10.1 18.66 5 19 C3.80911603 27.33618782 4.20300628 35.31840737 4.68359375 43.703125 C4.97748254 49.6955892 4.95464121 55.5254421 4.52734375 61.51171875 C3.9717797 69.34152298 3.93479507 77.14063846 3.97265625 84.98828125 C3.97820526 86.22959808 3.98375427 87.47091492 3.98947144 88.74984741 C4.01703918 93.92632426 4.05229846 99.10268624 4.09594727 104.27905273 C4.12602402 108.0988003 4.14385937 111.91845369 4.16015625 115.73828125 C4.17361588 116.9111116 4.1870755 118.08394196 4.20094299 119.29231262 C4.20432175 120.3783226 4.2077005 121.46433258 4.21118164 122.58325195 C4.21863907 123.5356929 4.2260965 124.48813385 4.23377991 125.46943665 C3.98982053 128.11018822 3.34417828 129.73683951 2 132 C1.34 132 0.68 132 0 132 C0 88.44 0 44.88 0 0 Z " fill="#7A754F" transform="translate(253,321)"/>
<path d="M0 0 C5.61 0 11.22 0 17 0 C17 43.56 17 87.12 17 132 C11.39 132 5.78 132 0 132 C0 88.44 0 44.88 0 0 Z M4.5625 4.25 C1.82690348 9.06464988 2.23145098 15.12609246 3.64453125 20.41015625 C4 23 4 23 3.03839111 26.05192566 C1.67095824 30.61587569 1.71963107 35.02531186 1.74121094 39.7590332 C1.7377063 40.71269272 1.73420166 41.66635223 1.73059082 42.64891052 C1.7218287 45.78294269 1.7276008 48.91674702 1.734375 52.05078125 C1.73302732 54.23317 1.73108593 56.41555845 1.72857666 58.59794617 C1.72563336 63.16143668 1.72989963 67.72484871 1.73925781 72.28833008 C1.75068572 78.14747726 1.74406676 84.00644189 1.73211288 89.86558247 C1.72490171 94.3667286 1.7271782 98.86783109 1.73236847 103.3689785 C1.73370527 105.53041798 1.73205618 107.69186138 1.72740936 109.85329628 C1.72235267 112.8649517 1.73004075 115.87630654 1.74121094 118.88793945 C1.73716248 119.78612396 1.73311401 120.68430847 1.72894287 121.60971069 C1.53468284 126.2871023 1.53468284 126.2871023 4 130 C8.05261287 130.34490322 9.54754176 130.30163882 13 128 C14.53326751 124.30784542 14.12554428 120.18775063 14.09765625 116.25317383 C14.09619598 115.47700714 14.09473572 114.70084045 14.0932312 113.90115356 C14.0894302 112.21786169 14.08331889 110.5345738 14.07516479 108.85129738 C14.06237582 106.1811048 14.05587832 103.51096207 14.05102539 100.84074402 C14.03766695 94.20491981 14.01353831 87.56914268 13.98962402 80.93334961 C13.96982523 75.33053028 13.95420847 69.72772903 13.94406128 64.12488365 C13.93761918 61.50548937 13.92510784 58.88616993 13.91235352 56.26679993 C13.90871684 54.64246687 13.90536563 53.01813314 13.90234375 51.39379883 C13.89717743 50.67503067 13.89201111 49.95626251 13.88668823 49.2157135 C13.88623282 44.77026613 14.21771088 40.45233355 14.7825613 36.04236984 C15.12062319 32.86700404 15.00306568 29.74535235 14.87890625 26.55859375 C14.85529526 25.90544693 14.83168427 25.25230011 14.80735779 24.57936096 C14.73193789 22.53178221 14.64740712 20.48470492 14.5625 18.4375 C14.50915672 17.03322612 14.45641764 15.62892916 14.40429688 14.22460938 C14.2754541 10.81613242 14.14052672 7.40801187 14 4 C9.13956786 2.93894015 9.13956786 2.93894015 4.5625 4.25 Z " fill="#CDBF62" transform="translate(236,321)"/>
<path d="M0 0 C5.61 0 11.22 0 17 0 C17 15.18 17 30.36 17 46 C11.39 46 5.78 46 0 46 C0 30.82 0 15.64 0 0 Z " fill="#010201" transform="translate(380,75)"/>
<path d="M0 0 C5.61 0 11.22 0 17 0 C17 15.18 17 30.36 17 46 C11.72 46 6.44 46 1 46 C0 45 0 45 -0.12025452 43.17137146 C-0.11803391 42.37417191 -0.11581329 41.57697235 -0.11352539 40.75561523 C-0.11344986 39.85475693 -0.11337433 38.95389862 -0.11329651 38.02574158 C-0.10813522 37.04658279 -0.10297394 36.06742401 -0.09765625 35.05859375 C-0.0962413 34.06118668 -0.09482635 33.0637796 -0.09336853 32.03614807 C-0.08775114 28.83656876 -0.07519571 25.63705831 -0.0625 22.4375 C-0.05748724 20.27408955 -0.05292395 18.11067801 -0.04882812 15.94726562 C-0.03777606 10.63148371 -0.02049979 5.31575354 0 0 Z " fill="#010201" transform="translate(167,75)"/>
<path d="M0 0 C3.96 0 7.92 0 12 0 C12 3.63 12 7.26 12 11 C27.18 11 42.36 11 58 11 C58 14.63 58 18.26 58 22 C38.86 22 19.72 22 0 22 C0 14.74 0 7.48 0 0 Z " fill="#191D1B" transform="translate(293,190)"/>
<path d="M0 0 C3.63 0 7.26 0 11 0 C11 22.77 11 45.54 11 69 C7.37 69 3.74 69 0 69 C0 46.23 0 23.46 0 0 Z " fill="#000101" transform="translate(540,499)"/>
<path d="M0 0 C3.63 0 7.26 0 11 0 C11 22.77 11 45.54 11 69 C7.37 69 3.74 69 0 69 C0 46.23 0 23.46 0 0 Z " fill="#000100" transform="translate(13,499)"/>
<path d="M0 0 C22.44 0 44.88 0 68 0 C68 3.63 68 7.26 68 11 C45.56 11 23.12 11 0 11 C0 7.37 0 3.74 0 0 Z " fill="#010301" transform="translate(185,694)"/>
<path d="M0 0 C19.14 0 38.28 0 58 0 C58 3.96 58 7.92 58 12 C38.86 12 19.72 12 0 12 C0 8.04 0 4.08 0 0 Z " fill="#161C1C" transform="translate(253,281)"/>
<path d="M0 0 C18.81 0 37.62 0 57 0 C57 3.96 57 7.92 57 12 C38.19 12 19.38 12 0 12 C0 8.04 0 4.08 0 0 Z " fill="#4E534E" transform="translate(162,682)"/>
<path d="M0 0 C5.61 0 11.22 0 17 0 C17 13.2 17 26.4 17 40 C11.39 40 5.78 40 0 40 C0 26.8 0 13.6 0 0 Z " fill="#010201" transform="translate(471,339)"/>
<path d="M0 0 C5.61 0 11.22 0 17 0 C17 13.2 17 26.4 17 40 C11.39 40 5.78 40 0 40 C0 26.8 0 13.6 0 0 Z " fill="#010101" transform="translate(76,339)"/>
<path d="M0 0 C12.87 0 25.74 0 39 0 C39 5.61 39 11.22 39 17 C26.13 17 13.26 17 0 17 C0 11.39 0 5.78 0 0 Z " fill="#010201" transform="translate(397,304)"/>
<path d="M0 0 C12.87 0 25.74 0 39 0 C39 5.61 39 11.22 39 17 C26.13 17 13.26 17 0 17 C0 11.39 0 5.78 0 0 Z " fill="#010101" transform="translate(128,304)"/>
<path d="M0 0 C7.59 0 15.18 0 23 0 C23 11.22 23 22.44 23 34 C19.04 34 15.08 34 11 34 C11 30.37 11 26.74 11 23 C7.37 23 3.74 23 0 23 C0 15.41 0 7.82 0 0 Z " fill="#4E524F" transform="translate(162,545)"/>
<path d="M0 0 C0.99 0 1.98 0 3 0 C3 37.62 3 75.24 3 114 C8.61 114 14.22 114 20 114 C20 119.94 20 125.88 20 132 C14.39 132 8.78 132 3 132 C2.625 123.6875 2.625 123.6875 2.52197266 121.08081055 C2.4863623 120.39801025 2.45075195 119.71520996 2.4140625 119.01171875 C2.3826416 118.31522217 2.3512207 117.61872559 2.31884766 116.90112305 C2.07881747 114.67467261 2.07881747 114.67467261 0 112 C-0.24609566 109.88171101 -0.24609566 109.88171101 -0.24050903 107.38728333 C-0.24325836 106.44077408 -0.24600769 105.49426483 -0.24884033 104.51907349 C-0.24164978 103.4825766 -0.23445923 102.44607971 -0.22705078 101.37817383 C-0.22734283 100.28533585 -0.22763489 99.19249786 -0.22793579 98.06654358 C-0.22654007 94.44662596 -0.2109673 90.826913 -0.1953125 87.20703125 C-0.19158324 84.70025241 -0.18873586 82.19347211 -0.18673706 79.68669128 C-0.17987545 73.75812501 -0.16410513 67.82962463 -0.14403808 61.90109223 C-0.11949512 54.48941313 -0.10874934 47.07772495 -0.09765625 39.66601562 C-0.07619414 26.44397296 -0.04243322 13.22199114 0 0 Z " fill="#787552" transform="translate(233,339)"/>
<path d="M0 0 C5.61 0 11.22 0 17 0 C17 43.56 17 87.12 17 132 C11.39 132 5.78 132 0 132 C0 88.44 0 44.88 0 0 Z M5 4 C2.64753157 5.90531376 2.64753157 5.90531376 2.83984375 9.1875 C2.87207031 10.445625 2.90429688 11.70375 2.9375 13 C3.09784736 19.80430528 3.09784736 19.80430528 2 22 C1.90411005 23.39960314 1.86934619 24.80364693 1.86628723 26.20652771 C1.86202225 27.08842773 1.85775726 27.97032776 1.85336304 28.87895203 C1.85381622 29.84887589 1.85426941 30.81879974 1.85473633 31.81811523 C1.85137772 32.83771332 1.8480191 33.8573114 1.84455872 34.9078064 C1.83502926 38.29141444 1.83310464 41.67497311 1.83203125 45.05859375 C1.82882019 47.40267457 1.82545624 49.74675518 1.82194519 52.09083557 C1.81594902 57.00953639 1.8141058 61.92821961 1.81469727 66.84692383 C1.81479895 73.16010561 1.80114269 79.47317508 1.78392506 85.78633022 C1.77282539 90.62893699 1.77077743 95.47151641 1.77130699 100.3141346 C1.77012396 102.64221649 1.76568418 104.97029903 1.75797462 107.29836845 C1.74821522 110.54982322 1.75103671 113.80103179 1.75708008 117.05249023 C1.75146057 118.02038986 1.74584106 118.98828949 1.74005127 119.98551941 C1.74424576 120.87023926 1.74844025 121.75495911 1.75276184 122.66648865 C1.75221707 123.43543174 1.75167231 124.20437483 1.75111103 124.99661922 C1.88744964 127.31638614 1.88744964 127.31638614 4 130 C5.258125 129.938125 6.51625 129.87625 7.8125 129.8125 C8.87404297 129.76029297 8.87404297 129.76029297 9.95703125 129.70703125 C13.00651723 128.65166421 13.58178366 126.82704557 15 124 C15.43582068 121.47351754 15.43582068 121.47351754 15.36076355 118.80509949 C15.36488754 117.78011353 15.36901154 116.75512756 15.3732605 115.69908142 C15.36247467 114.58561844 15.35168884 113.47215546 15.34057617 112.32495117 C15.34101425 111.144039 15.34145233 109.96312683 15.34190369 108.74642944 C15.34017451 105.51733285 15.32515213 102.28862868 15.30418181 99.05961013 C15.28539979 95.68171002 15.28366338 92.30380181 15.28010559 88.92585754 C15.27078957 82.53336789 15.24618191 76.14103256 15.21605712 69.74861079 C15.18249921 62.4693323 15.16602363 55.19004636 15.15097082 47.91070974 C15.11963187 32.94038724 15.06688012 17.97020907 15 3 C10.8750109 2.02575634 8.82845284 2.03403773 5 4 Z " fill="#CEBF67" transform="translate(311,321)"/>
<path d="M0 0 C11.55 0 23.1 0 35 0 C35 5.94 35 11.88 35 18 C23.45 18 11.9 18 0 18 C0 12.06 0 6.12 0 0 Z " fill="#010201" transform="translate(436,321)"/>
<path d="M0 0 C5.94 0 11.88 0 18 0 C18 11.22 18 22.44 18 34 C12.06 34 6.12 34 0 34 C0 22.78 0 11.56 0 0 Z " fill="#363C3A" transform="translate(201,568)"/>
<path d="M0 0 C5.94 0 11.88 0 18 0 C18 11.22 18 22.44 18 34 C12.06 34 6.12 34 0 34 C0 22.78 0 11.56 0 0 Z " fill="#4C534D" transform="translate(402,396)"/>
<path d="M0 0 C5.61 0 11.22 0 17 0 C17 11.55 17 23.1 17 35 C11.39 35 5.78 35 0 35 C0 23.45 0 11.9 0 0 Z " fill="#010201" transform="translate(363,40)"/>
<path d="M0 0 C5.61 0 11.22 0 17 0 C17 11.55 17 23.1 17 35 C11.39 35 5.78 35 0 35 C0 23.45 0 11.9 0 0 Z " fill="#010201" transform="translate(184,40)"/>
<path d="M0 0 C17.82 0 35.64 0 54 0 C54 3.63 54 7.26 54 11 C36.18 11 18.36 11 0 11 C0 7.37 0 3.74 0 0 Z " fill="#4D534E" transform="translate(291,568)"/>
<path d="M0 0 C17.82 0 35.64 0 54 0 C54 3.63 54 7.26 54 11 C36.18 11 18.36 11 0 11 C0 7.37 0 3.74 0 0 Z " fill="#4E534F" transform="translate(219,568)"/>
<path d="M0 0 C5.61 0 11.22 0 17 0 C17 3.96 17 7.92 17 12 C22.94 12 28.88 12 35 12 C35 15.63 35 19.26 35 23 C23.45 23 11.9 23 0 23 C0 15.41 0 7.82 0 0 Z " fill="#010202" transform="translate(328,17)"/>
<path d="M0 0 C5.61 0 11.22 0 17 0 C17 7.59 17 15.18 17 23 C5.45 23 -6.1 23 -18 23 C-18 19.37 -18 15.74 -18 12 C-12.06 12 -6.12 12 0 12 C0 8.04 0 4.08 0 0 Z " fill="#010202" transform="translate(219,17)"/>
<path d="M0 0 C3.96 0 7.92 0 12 0 C11.67 11.22 11.34 22.44 11 34 C3.41 34 -4.18 34 -12 34 C-12 30.37 -12 26.74 -12 23 C-10.02 23 -8.04 23 -6 23 C-6 19.04 -6 15.08 -6 11 C-4.02 11 -2.04 11 0 11 C0 7.37 0 3.74 0 0 Z " fill="#202B41" transform="translate(225,98)"/>
<path d="M0 0 C5.61 0 11.22 0 17 0 C17 11.22 17 22.44 17 34 C11.39 34 5.78 34 0 34 C0 22.78 0 11.56 0 0 Z " fill="#4D534E" transform="translate(145,396)"/>
<path d="M0 0 C5.61 0 11.22 0 17 0 C17 11.22 17 22.44 17 34 C11.39 34 5.78 34 0 34 C0 22.78 0 11.56 0 0 Z " fill="#010202" transform="translate(488,379)"/>
<path d="M0 0 C5.61 0 11.22 0 17 0 C17 11.22 17 22.44 17 34 C11.39 34 5.78 34 0 34 C0 22.78 0 11.56 0 0 Z " fill="#000100" transform="translate(59,379)"/>
<path d="M0 0 C11.22 0 22.44 0 34 0 C34 5.61 34 11.22 34 17 C22.78 17 11.56 17 0 17 C0 11.39 0 5.78 0 0 Z " fill="#4F564F" transform="translate(363,304)"/>
<path d="M0 0 C11.22 0 22.44 0 34 0 C34 5.61 34 11.22 34 17 C22.78 17 11.56 17 0 17 C0 11.39 0 5.78 0 0 Z " fill="#4F564F" transform="translate(167,304)"/>
<path d="M0 0 C30.36 0 60.72 0 92 0 C92 3.96 92 7.92 92 12 C80.45 12 68.9 12 57 12 C57 15.63 57 19.26 57 23 C49.74 23 42.48 23 35 23 C35 19.37 35 15.74 35 12 C23.45 12 11.9 12 0 12 C0 8.04 0 4.08 0 0 Z M2 1 C2 3.97 2 6.94 2 10 C2.95890137 9.98952637 3.91780273 9.97905273 4.90576172 9.96826172 C8.45780719 9.93210672 12.00983634 9.90911607 15.56201172 9.89013672 C17.10045098 9.88006882 18.63887107 9.86641354 20.17724609 9.84912109 C22.38644133 9.82490683 24.59538395 9.81352509 26.8046875 9.8046875 C27.49432587 9.79436493 28.18396423 9.78404236 28.89450073 9.77340698 C30.59800906 9.77300522 32.30085943 9.87808974 34 10 C34.66 10.66 35.32 11.32 36 12 C38.11533209 12.29350396 38.11533209 12.29350396 40.53515625 12.23046875 C41.87223633 12.22756836 41.87223633 12.22756836 43.23632812 12.22460938 C44.16896484 12.21236328 45.10160156 12.20011719 46.0625 12.1875 C47.46725586 12.1865332 47.46725586 12.1865332 48.90039062 12.18554688 C53.28436532 12.55769467 53.28436532 12.55769467 57 11 C59.44608998 10.84019563 61.86731058 10.74070553 64.31640625 10.68359375 C65.04746078 10.66281265 65.77851532 10.64203156 66.53172302 10.62062073 C68.87521656 10.55504976 71.21882539 10.49620568 73.5625 10.4375 C75.14779855 10.39432192 76.73308529 10.35070787 78.31835938 10.30664062 C82.21212037 10.1993608 86.10599772 10.0981151 90 10 C90 7.36 90 4.72 90 2 C60.66990723 0.81085671 31.34952429 0.89456621 2 1 Z " fill="#9B7A69" transform="translate(236,132)"/>
<path d="M0 0 C14.85 0 29.7 0 45 0 C45 3.96 45 7.92 45 12 C30.15 12 15.3 12 0 12 C0 8.04 0 4.08 0 0 Z " fill="#4E534F" transform="translate(357,682)"/>
<path d="M0 0 C15.18 0 30.36 0 46 0 C46 3.63 46 7.26 46 11 C30.82 11 15.64 11 0 11 C0 7.37 0 3.74 0 0 Z " fill="#030200" transform="translate(305,190)"/>
<path d="M0 0 C15.18 0 30.36 0 46 0 C46 3.63 46 7.26 46 11 C30.82 11 15.64 11 0 11 C0 7.37 0 3.74 0 0 Z " fill="#020100" transform="translate(213,190)"/>
<path d="M0 0 C7.26 0 14.52 0 22 0 C22 7.59 22 15.18 22 23 C14.74 23 7.48 23 0 23 C0 15.41 0 7.82 0 0 Z " fill="#C49374" transform="translate(271,167)"/>
<path d="M0 0 C7.26 0 14.52 0 22 0 C22 11.22 22 22.44 22 34 C18.37 34 14.74 34 11 34 C11 26.41 11 18.82 11 11 C7.37 11 3.74 11 0 11 C0 7.37 0 3.74 0 0 Z " fill="#353B3B" transform="translate(414,591)"/>
<path d="M0 0 C7.26 0 14.52 0 22 0 C22 3.63 22 7.26 22 11 C18.37 11 14.74 11 11 11 C11 18.59 11 26.18 11 34 C7.37 34 3.74 34 0 34 C0 22.78 0 11.56 0 0 Z " fill="#363B3B" transform="translate(128,591)"/>
<path d="M0 0 C5.94 0 11.88 0 18 0 C18 7.59 18 15.18 18 23 C12.06 23 6.12 23 0 23 C0 15.41 0 7.82 0 0 Z " fill="#4C514E" transform="translate(345,86)"/>
<path d="M0 0 C5.94 0 11.88 0 18 0 C18 7.59 18 15.18 18 23 C12.06 23 6.12 23 0 23 C0 15.41 0 7.82 0 0 Z " fill="#4D504E" transform="translate(201,86)"/>
<path d="M0 0 C7.59 0 15.18 0 23 0 C23 3.96 23 7.92 23 12 C19.37 12 15.74 12 12 12 C12 15.63 12 19.26 12 23 C8.04 23 4.08 23 0 23 C0 15.41 0 7.82 0 0 Z " fill="#454A48" transform="translate(305,155)"/>
<path d="M0 0 C7.59 0 15.18 0 23 0 C23 3.96 23 7.92 23 12 C19.37 12 15.74 12 12 12 C12 15.63 12 19.26 12 23 C8.04 23 4.08 23 0 23 C0 15.41 0 7.82 0 0 Z " fill="#434748" transform="translate(213,155)"/>
<path d="M0 0 C3.63 0 7.26 0 11 0 C11 11.55 11 23.1 11 35 C7.37 35 3.74 35 0 35 C0 23.45 0 11.9 0 0 Z " fill="#000101" transform="translate(414,602)"/>
<path d="M0 0 C3.63 0 7.26 0 11 0 C11 11.55 11 23.1 11 35 C7.37 35 3.74 35 0 35 C0 23.45 0 11.9 0 0 Z " fill="#000301" transform="translate(139,602)"/>
<path d="M0 0 C5.28 0 10.56 0 16 0 C16 7.92 16 15.84 16 24 C10.72 24 5.44 24 0 24 C0 16.08 0 8.16 0 0 Z " fill="#696F6C" transform="translate(420,510)"/>
<path d="M0 0 C5.28 0 10.56 0 16 0 C16 7.92 16 15.84 16 24 C10.72 24 5.44 24 0 24 C0 16.08 0 8.16 0 0 Z " fill="#6A6F6C" transform="translate(128,510)"/>
<path d="M0 0 C2.64 0 5.28 0 8 0 C8 15.18 8 30.36 8 46 C5.36 46 2.72 46 0 46 C0 30.82 0 15.64 0 0 Z " fill="#464D47" transform="translate(291,625)"/>
<path d="M0 0 C6.6 0 13.2 0 20 0 C20 5.94 20 11.88 20 18 C13.4 18 6.8 18 0 18 C0 12.06 0 6.12 0 0 Z " fill="#4E534D" transform="translate(253,321)"/>
<path d="M0 0 C6.6 0 13.2 0 20 0 C20 5.94 20 11.88 20 18 C13.4 18 6.8 18 0 18 C0 12.06 0 6.12 0 0 Z " fill="#4F5348" transform="translate(291,321)"/>
<path d="M0 0 C5.94 0 11.88 0 18 0 C18 7.59 18 15.18 18 23 C14.04 23 10.08 23 6 23 C6 19.37 6 15.74 6 12 C4.02 12 2.04 12 0 12 C0 8.04 0 4.08 0 0 Z " fill="#010306" transform="translate(345,109)"/>
<path d="M0 0 C5.94 0 11.88 0 18 0 C18 3.96 18 7.92 18 12 C16.02 12 14.04 12 12 12 C12 15.63 12 19.26 12 23 C8.04 23 4.08 23 0 23 C0 15.41 0 7.82 0 0 Z " fill="#010206" transform="translate(201,109)"/>
<path d="M0 0 C5.94 0 11.88 0 18 0 C18 5.94 18 11.88 18 18 C12.06 18 6.12 18 0 18 C0 12.06 0 6.12 0 0 Z " fill="#010101" transform="translate(110,321)"/>
<path d="M0 0 C5.61 0 11.22 0 17 0 C17 3.63 17 7.26 17 11 C15.02 11 13.04 11 11 11 C11 14.96 11 18.92 11 23 C7.37 23 3.74 23 0 23 C0 15.41 0 7.82 0 0 Z " fill="#141A1A" transform="translate(328,247)"/>
<path d="M0 0 C5.61 0 11.22 0 17 0 C17 7.59 17 15.18 17 23 C13.37 23 9.74 23 6 23 C6 19.04 6 15.08 6 11 C4.02 11 2.04 11 0 11 C0 7.37 0 3.74 0 0 Z " fill="#161B1A" transform="translate(219,247)"/>
<path d="M0 0 C5.61 0 11.22 0 17 0 C17 5.94 17 11.88 17 18 C11.39 18 5.78 18 0 18 C0 12.06 0 6.12 0 0 Z " fill="#383E36" transform="translate(236,453)"/>
<path d="M0 0 C5.61 0 11.22 0 17 0 C17 5.94 17 11.88 17 18 C11.39 18 5.78 18 0 18 C0 12.06 0 6.12 0 0 Z " fill="#383E38" transform="translate(311,453)"/>
<path d="M0 0 C5.61 0 11.22 0 17 0 C17 5.94 17 11.88 17 18 C11.39 18 5.78 18 0 18 C0 12.06 0 6.12 0 0 Z " fill="#4F5550" transform="translate(128,321)"/>
<path d="M0 0 C5.94 0 11.88 0 18 0 C18 5.61 18 11.22 18 17 C12.06 17 6.12 17 0 17 C0 11.39 0 5.78 0 0 Z " fill="#020302" transform="translate(345,304)"/>
<path d="M0 0 C5.94 0 11.88 0 18 0 C18 5.61 18 11.22 18 17 C12.06 17 6.12 17 0 17 C0 11.39 0 5.78 0 0 Z " fill="#030403" transform="translate(201,304)"/>
<path d="M0 0 C5.94 0 11.88 0 18 0 C18 5.61 18 11.22 18 17 C12.06 17 6.12 17 0 17 C0 11.39 0 5.78 0 0 Z " fill="#6B726B" transform="translate(345,287)"/>
<path d="M0 0 C5.94 0 11.88 0 18 0 C18 5.61 18 11.22 18 17 C12.06 17 6.12 17 0 17 C0 11.39 0 5.78 0 0 Z " fill="#4C514C" transform="translate(201,270)"/>
<path d="M0 0 C5.94 0 11.88 0 18 0 C18 5.61 18 11.22 18 17 C12.06 17 6.12 17 0 17 C0 11.39 0 5.78 0 0 Z " fill="#4B504B" transform="translate(345,270)"/>
<path d="M0 0 C1.4883163 0.00574353 2.97660671 0.01875734 4.46484375 0.03515625 C7.08421875 0.05578125 9.70359375 0.07640625 12.40234375 0.09765625 C12.40234375 6.03765625 12.40234375 11.97765625 12.40234375 18.09765625 C6.79234375 18.09765625 1.18234375 18.09765625 -4.59765625 18.09765625 C-4.61828125 15.31328125 -4.63890625 12.52890625 -4.66015625 9.66015625 C-4.66926025 8.78174072 -4.67836426 7.9033252 -4.68774414 6.99829102 C-4.69488716 5.03119651 -4.64797518 3.06412004 -4.59765625 1.09765625 C-3.59765625 0.09765625 -3.59765625 0.09765625 0 0 Z " fill="#4D5550" transform="translate(423.59765625,320.90234375)"/>
<path d="M0 0 C5.61 0 11.22 0 17 0 C17 5.61 17 11.22 17 17 C11.39 17 5.78 17 0 17 C0 11.39 0 5.78 0 0 Z " fill="#4E5250" transform="translate(488,413)"/>
<path d="M0 0 C5.61 0 11.22 0 17 0 C17 5.61 17 11.22 17 17 C11.39 17 5.78 17 0 17 C0 11.39 0 5.78 0 0 Z " fill="#4E524F" transform="translate(59,413)"/>
<path d="M0 0 C5.61 0 11.22 0 17 0 C17 5.61 17 11.22 17 17 C11.39 17 5.78 17 0 17 C0 11.39 0 5.78 0 0 Z " fill="#4D524E" transform="translate(471,379)"/>
<path d="M0 0 C5.61 0 11.22 0 17 0 C17 5.61 17 11.22 17 17 C11.39 17 5.78 17 0 17 C0 11.39 0 5.78 0 0 Z " fill="#4E534F" transform="translate(76,379)"/>
<path d="M0 0 C5.61 0 11.22 0 17 0 C17 5.61 17 11.22 17 17 C11.39 17 5.78 17 0 17 C0 11.39 0 5.78 0 0 Z " fill="#4B524C" transform="translate(419,362)"/>
<path d="M0 0 C5.61 0 11.22 0 17 0 C17 5.61 17 11.22 17 17 C11.39 17 5.78 17 0 17 C0 11.39 0 5.78 0 0 Z " fill="#4A4F4C" transform="translate(128,362)"/>
<path d="M0 0 C5.61 0 11.22 0 17 0 C17 5.61 17 11.22 17 17 C11.39 17 5.78 17 0 17 C0 11.39 0 5.78 0 0 Z " fill="#4B514A" transform="translate(311,304)"/>
<path d="M0 0 C5.61 0 11.22 0 17 0 C17 5.61 17 11.22 17 17 C11.39 17 5.78 17 0 17 C0 11.39 0 5.78 0 0 Z " fill="#4C5048" transform="translate(236,304)"/>
<path d="M0 0 C5.61 0 11.22 0 17 0 C17 5.61 17 11.22 17 17 C11.39 17 5.78 17 0 17 C0 11.39 0 5.78 0 0 Z " fill="#6F746E" transform="translate(219,304)"/>
<path d="M0 0 C5.61 0 11.22 0 17 0 C17 5.61 17 11.22 17 17 C11.39 17 5.78 17 0 17 C0 11.39 0 5.78 0 0 Z " fill="#4A4D4B" transform="translate(328,287)"/>
<path d="M0 0 C5.61 0 11.22 0 17 0 C17 5.61 17 11.22 17 17 C11.39 17 5.78 17 0 17 C0 11.39 0 5.78 0 0 Z " fill="#4C514B" transform="translate(219,287)"/>
<path d="M0 0 C7.59 0 15.18 0 23 0 C23 3.96 23 7.92 23 12 C15.41 12 7.82 12 0 12 C0 8.04 0 4.08 0 0 Z " fill="#000101" transform="translate(162,682)"/>
<path d="M0 0 C3.96 0 7.92 0 12 0 C12 7.59 12 15.18 12 23 C8.04 23 4.08 23 0 23 C0 15.41 0 7.82 0 0 Z " fill="#010201" transform="translate(436,591)"/>
<path d="M0 0 C3.96 0 7.92 0 12 0 C12 7.59 12 15.18 12 23 C8.04 23 4.08 23 0 23 C0 15.41 0 7.82 0 0 Z " fill="#010201" transform="translate(116,591)"/>
<path d="M0 0 C3.96 0 7.92 0 12 0 C12 7.59 12 15.18 12 23 C3 23 3 23 0 21 C-0.34057617 18.84521484 -0.34057617 18.84521484 -0.29296875 16.2109375 C-0.2784668 14.79941406 -0.2784668 14.79941406 -0.26367188 13.359375 C-0.23853516 12.37453125 -0.21339844 11.3896875 -0.1875 10.375 C-0.17396484 9.38242187 -0.16042969 8.38984375 -0.14648438 7.3671875 C-0.11106189 4.91122839 -0.05725369 2.45554718 0 0 Z " fill="#191D1C" transform="translate(150,591)"/>
<path d="M0 0 C5.61 0 11.22 0 17 0 C17 7.59 17 15.18 17 23 C15.02 23 13.04 23 11 23 C11 19.37 11 15.74 11 12 C7.37 12 3.74 12 0 12 C0 8.04 0 4.08 0 0 Z " fill="#000104" transform="translate(328,86)"/>
<path d="M0 0 C5.61 0 11.22 0 17 0 C17 3.96 17 7.92 17 12 C13.37 12 9.74 12 6 12 C6 15.63 6 19.26 6 23 C4.02 23 2.04 23 0 23 C0 15.41 0 7.82 0 0 Z " fill="#010204" transform="translate(219,86)"/>
<path d="M0 0 C7.26 0 14.52 0 22 0 C22 3.96 22 7.92 22 12 C14.74 12 7.48 12 0 12 C0 8.04 0 4.08 0 0 Z " fill="#000201" transform="translate(380,682)"/>
<path d="M0 0 C3.63 0 7.26 0 11 0 C11 7.59 11 15.18 11 23 C7.37 23 3.74 23 0 23 C0 15.41 0 7.82 0 0 Z " fill="#000100" transform="translate(368,614)"/>
<path d="M0 0 C3.63 0 7.26 0 11 0 C11 7.59 11 15.18 11 23 C7.37 23 3.74 23 0 23 C0 15.41 0 7.82 0 0 Z " fill="#1C201F" transform="translate(368,591)"/>
<path d="M0 0 C3.63 0 7.26 0 11 0 C11 7.59 11 15.18 11 23 C7.37 23 3.74 23 0 23 C0 15.41 0 7.82 0 0 Z " fill="#4D534D" transform="translate(517,476)"/>
<path d="M0 0 C7.59 0 15.18 0 23 0 C23 3.63 23 7.26 23 11 C15.41 11 7.82 11 0 11 C0 7.37 0 3.74 0 0 Z " fill="#C39372" transform="translate(213,201)"/>
<path d="M0 0 C7.59 0 15.18 0 23 0 C23 3.63 23 7.26 23 11 C15.41 11 7.82 11 0 11 C0 7.37 0 3.74 0 0 Z " fill="#BF9376" transform="translate(328,201)"/>
<path d="M0 0 C7.59 0 15.18 0 23 0 C23 3.63 23 7.26 23 11 C15.41 11 7.82 11 0 11 C0 7.37 0 3.74 0 0 Z " fill="#3A4563" transform="translate(328,121)"/>
<path d="M0 0 C7.59 0 15.18 0 23 0 C23 3.63 23 7.26 23 11 C15.41 11 7.82 11 0 11 C0 7.37 0 3.74 0 0 Z " fill="#3A4663" transform="translate(213,121)"/>
<path d="M0 0 C3.63 0 7.26 0 11 0 C11 7.26 11 14.52 11 22 C7.37 22 3.74 22 0 22 C0 14.74 0 7.48 0 0 Z " fill="#4E5451" transform="translate(36,477)"/>
<path d="M0 0 C7.26 0 14.52 0 22 0 C22 3.63 22 7.26 22 11 C14.74 11 7.48 11 0 11 C0 7.37 0 3.74 0 0 Z " fill="#181B17" transform="translate(271,190)"/>
<path d="M0 0 C0.66 0 1.32 0 2 0 C2.33 37.29 2.66 74.58 3 113 C1.515 113.495 1.515 113.495 0 114 C0 76.38 0 38.76 0 0 Z " fill="#797446" transform="translate(328,339)"/>
<path d="M0 0 C6.93 0 13.86 0 21 0 C21 3.63 21 7.26 21 11 C14.07 11 7.14 11 0 11 C0 7.37 0 3.74 0 0 Z " fill="#C1947A" transform="translate(271,144)"/>
<path d="M0 0 C5.94 0 11.88 0 18 0 C18 3.96 18 7.92 18 12 C12.06 12 6.12 12 0 12 C0 8.04 0 4.08 0 0 Z " fill="#4F5452" transform="translate(201,40)"/>
<path d="M0 0 C5.94 0 11.88 0 18 0 C18.125 9.75 18.125 9.75 17 12 C11.39 12 5.78 12 0 12 C0 8.04 0 4.08 0 0 Z " fill="#505452" transform="translate(345,40)"/>
<path d="M0 0 C5.61 0 11.22 0 17 0 C17 3.96 17 7.92 17 12 C11.39 12 5.78 12 0 12 C0 8.04 0 4.08 0 0 Z " fill="#4D524D" transform="translate(363,109)"/>
<path d="M0 0 C5.61 0 11.22 0 17 0 C17 3.96 17 7.92 17 12 C11.39 12 5.78 12 0 12 C0 8.04 0 4.08 0 0 Z " fill="#4A4F4B" transform="translate(184,109)"/>
<path d="M0 0 C2.64 0 5.28 0 8 0 C8 3.96 8 7.92 8 12 C11.96 12 15.92 12 20 12 C20 13.65 20 15.3 20 17 C13.4 17 6.8 17 0 17 C0 11.39 0 5.78 0 0 Z " fill="#727772" transform="translate(291,682)"/>
<path d="M0 0 C5.61 0 11.22 0 17 0 C17 3.63 17 7.26 17 11 C11.39 11 5.78 11 0 11 C0 7.37 0 3.74 0 0 Z " fill="#151B19" transform="translate(311,270)"/>
<path d="M0 0 C5.61 0 11.22 0 17 0 C17 3.63 17 7.26 17 11 C11.39 11 5.78 11 0 11 C0 7.37 0 3.74 0 0 Z " fill="#141B19" transform="translate(236,270)"/>
<path d="M0 0 C5.61 0 11.22 0 17 0 C17 3.63 17 7.26 17 11 C11.39 11 5.78 11 0 11 C0 7.37 0 3.74 0 0 Z " fill="#4C4F4A" transform="translate(363,236)"/>
<path d="M0 0 C5.61 0 11.22 0 17 0 C17 3.63 17 7.26 17 11 C11.39 11 5.78 11 0 11 C0 7.37 0 3.74 0 0 Z " fill="#4A4C49" transform="translate(184,236)"/>
<path d="M0 0 C5.61 0 11.22 0 17 0 C17 3.63 17 7.26 17 11 C11.39 11 5.78 11 0 11 C0 7.37 0 3.74 0 0 Z " fill="#4E534E" transform="translate(328,75)"/>
<path d="M0 0 C5.61 0 11.22 0 17 0 C17 3.63 17 7.26 17 11 C11.39 11 5.78 11 0 11 C0 7.37 0 3.74 0 0 Z " fill="#4D524F" transform="translate(219,75)"/>
<path d="M0 0 C5.94 0 11.88 0 18 0 C18 40.59 18 81.18 18 123 C18.66 123 19.32 123 20 123 C20 123.99 20 124.98 20 126 C24.62 126 29.24 126 34 126 C34 126.33 34 126.66 34 127 C28.39 127 22.78 127 17 127 C17 85.42 17 43.84 17 1 C11.39 1 5.78 1 0 1 C0 0.67 0 0.34 0 0 Z " fill="#5F6260" transform="translate(150,120)"/>
<path d="M0 0 C3.96 0 7.92 0 12 0 C12 3.96 12 7.92 12 12 C8.04 12 4.08 12 0 12 C0 8.04 0 4.08 0 0 Z " fill="#030404" transform="translate(299,682)"/>
<path d="M0 0 C3.96 0 7.92 0 12 0 C12 3.96 12 7.92 12 12 C8.04 12 4.08 12 0 12 C0 8.04 0 4.08 0 0 Z " fill="#161919" transform="translate(402,602)"/>
<path d="M0 0 C3.63 0 7.26 0 11 0 C11 3.96 11 7.92 11 12 C7.37 12 3.74 12 0 12 C0 8.04 0 4.08 0 0 Z " fill="#494F4A" transform="translate(311,682)"/>
<path d="M0 0 C3.63 0 7.26 0 11 0 C11 3.96 11 7.92 11 12 C7.37 12 3.74 12 0 12 C0 8.04 0 4.08 0 0 Z " fill="#4C514B" transform="translate(242,682)"/>
<path d="M0 0 C3.96 0 7.92 0 12 0 C12 3.63 12 7.26 12 11 C8.04 11 4.08 11 0 11 C0 7.37 0 3.74 0 0 Z " fill="#494F49" transform="translate(299,671)"/>
<path d="M0 0 C3.63 0 7.26 0 11 0 C11 3.96 11 7.92 11 12 C7.37 12 3.74 12 0 12 C0 8.04 0 4.08 0 0 Z " fill="#000201" transform="translate(391,648)"/>
<path d="M0 0 C3.63 0 7.26 0 11 0 C11 3.96 11 7.92 11 12 C7.37 12 3.74 12 0 12 C0 8.04 0 4.08 0 0 Z " fill="#010101" transform="translate(162,648)"/>
<path d="M0 0 C3.96 0 7.92 0 12 0 C12 3.63 12 7.26 12 11 C8.04 11 4.08 11 0 11 C0 7.37 0 3.74 0 0 Z " fill="#010302" transform="translate(173,637)"/>
<path d="M0 0 C3.96 0 7.92 0 12 0 C12 3.63 12 7.26 12 11 C8.04 11 4.08 11 0 11 C0 7.37 0 3.74 0 0 Z " fill="#4A4E4C" transform="translate(299,614)"/>
<path d="M0 0 C3.63 0 7.26 0 11 0 C11 3.96 11 7.92 11 12 C7.37 12 3.74 12 0 12 C0 8.04 0 4.08 0 0 Z " fill="#494D4A" transform="translate(311,602)"/>
<path d="M0 0 C3.96 0 7.92 0 12 0 C12 3.63 12 7.26 12 11 C8.04 11 4.08 11 0 11 C0 7.37 0 3.74 0 0 Z " fill="#010201" transform="translate(402,591)"/>
<path d="M0 0 C3.63 0 7.26 0 11 0 C11 3.96 11 7.92 11 12 C7.37 12 3.74 12 0 12 C0 8.04 0 4.08 0 0 Z " fill="#030402" transform="translate(425,579)"/>
<path d="M0 0 C3.63 0 7.26 0 11 0 C11 3.96 11 7.92 11 12 C7.37 12 3.74 12 0 12 C0 8.04 0 4.08 0 0 Z " fill="#020402" transform="translate(128,579)"/>
<path d="M0 0 C3.96 0 7.92 0 12 0 C12 3.63 12 7.26 12 11 C8.04 11 4.08 11 0 11 C0 7.37 0 3.74 0 0 Z " fill="#B49280" transform="translate(259,190)"/>
<path d="M0 0 C3.96 0 7.92 0 12 0 C12 3.63 12 7.26 12 11 C8.04 11 4.08 11 0 11 C0 7.37 0 3.74 0 0 Z " fill="#AD8B79" transform="translate(351,190)"/>
<path d="M0 0 C3.96 0 7.92 0 12 0 C12 3.63 12 7.26 12 11 C8.04 11 4.08 11 0 11 C0 7.37 0 3.74 0 0 Z " fill="#BA9A87" transform="translate(293,190)"/>
<path d="M0 0 C3.96 0 7.92 0 12 0 C12 3.63 12 7.26 12 11 C8.04 11 4.08 11 0 11 C0 7.37 0 3.74 0 0 Z " fill="#A9826D" transform="translate(201,190)"/>
<path d="M0 0 C3.96 0 7.92 0 12 0 C12 3.63 12 7.26 12 11 C8.04 11 4.08 11 0 11 C0 7.37 0 3.74 0 0 Z " fill="#191F2F" transform="translate(351,121)"/>
<path d="M0 0 C3.96 0 7.92 0 12 0 C12 3.63 12 7.26 12 11 C3.50390625 11.09765625 3.50390625 11.09765625 1 11 C0 10 0 10 -0.09765625 7.71484375 C-0.06510417 5.14322917 -0.03255208 2.57161458 0 0 Z " fill="#010302" transform="translate(150,591)"/>
<path d="M0 0 C3.63 0 7.26 0 11 0 C11 3.63 11 7.26 11 11 C7.37 11 3.74 11 0 11 C0 7.37 0 3.74 0 0 Z " fill="#454D49" transform="translate(253,671)"/>
<path d="M0 0 C3.63 0 7.26 0 11 0 C11 3.63 11 7.26 11 11 C7.37 11 3.74 11 0 11 C0 7.37 0 3.74 0 0 Z " fill="#292E2D" transform="translate(414,637)"/>
<path d="M0 0 C3.63 0 7.26 0 11 0 C11 3.63 11 7.26 11 11 C7.37 11 3.74 11 0 11 C0 7.37 0 3.74 0 0 Z " fill="#020302" transform="translate(380,637)"/>
<path d="M0 0 C3.63 0 7.26 0 11 0 C11 3.63 11 7.26 11 11 C7.37 11 3.74 11 0 11 C0 7.37 0 3.74 0 0 Z " fill="#2D312F" transform="translate(139,637)"/>
<path d="M0 0 C3.63 0 7.26 0 11 0 C11 3.63 11 7.26 11 11 C7.37 11 3.74 11 0 11 C0 7.37 0 3.74 0 0 Z " fill="#1B1F1F" transform="translate(391,591)"/>
<path d="M0 0 C3.63 0 7.26 0 11 0 C11 3.63 11 7.26 11 11 C7.37 11 3.74 11 0 11 C0 7.37 0 3.74 0 0 Z " fill="#4F504E" transform="translate(322,591)"/>
<path d="M0 0 C3.63 0 7.26 0 11 0 C11 3.63 11 7.26 11 11 C7.37 11 3.74 11 0 11 C0 7.37 0 3.74 0 0 Z " fill="#202524" transform="translate(185,591)"/>
<path d="M0 0 C3.63 0 7.26 0 11 0 C11 3.63 11 7.26 11 11 C7.37 11 3.74 11 0 11 C0 7.37 0 3.74 0 0 Z " fill="#1B1F1F" transform="translate(162,591)"/>
<path d="M0 0 C3.63 0 7.26 0 11 0 C11 3.63 11 7.26 11 11 C7.37 11 3.74 11 0 11 C0 7.37 0 3.74 0 0 Z " fill="#1A2034" transform="translate(202,121)"/>
<path d="M0 0 C7.59 0 15.18 0 23 0 C23 3.63 23 7.26 23 11 C15.41 11 7.82 11 0 11 C0 7.37 0 3.74 0 0 Z M1 2 C1 4.31 1 6.62 1 9 C3.58281836 9.22224251 6.16522187 9.42823488 8.75 9.625 C9.84441406 9.72167969 9.84441406 9.72167969 10.9609375 9.8203125 C14.85911736 10.10381649 17.70645322 10.27081383 21 8 C21.042721 6.33388095 21.04063832 4.66617115 21 3 C20.01592689 1.79504091 20.01592689 1.79504091 18.14233398 1.88647461 C17.35157471 1.89171143 16.56081543 1.89694824 15.74609375 1.90234375 C14.46508789 1.90717773 14.46508789 1.90717773 13.15820312 1.91210938 C12.26037109 1.92048828 11.36253906 1.92886719 10.4375 1.9375 C9.53580078 1.94201172 8.63410156 1.94652344 7.70507812 1.95117188 C5.46998686 1.96299775 3.23502563 1.9794778 1 2 Z " fill="#B2927C" transform="translate(213,201)"/>
<path d="M0 0 C3.96 0 7.92 0 12 0 C12 3.63 12 7.26 12 11 C19.59 11 27.18 11 35 11 C35 7.37 35 3.74 35 0 C35.99 0.33 36.98 0.66 38 1 C37.96744792 3.01822917 37.93489583 5.03645833 37.90234375 7.0546875 C37.87350758 9.08185404 37.87350758 9.08185404 39 11 C35.10754734 13.63982827 31.00167351 13.188608 26.5 13.0625 C21.15769072 12.78187351 21.15769072 12.78187351 15.93945312 13.62670898 C14 14 14 14 11 12 C10.26953125 9.6171875 10.26953125 9.6171875 9.8125 6.875 C9.65394531 5.96492187 9.49539062 5.05484375 9.33203125 4.1171875 C9.22246094 3.41851562 9.11289063 2.71984375 9 2 C6.03 1.67 3.06 1.34 0 1 C0 0.67 0 0.34 0 0 Z " fill="#281B0F" transform="translate(201,201)"/>
<path d="M0 0 C1.81242052 -0.02687279 3.62495233 -0.04633715 5.4375 -0.0625 C6.44683594 -0.07410156 7.45617187 -0.08570313 8.49609375 -0.09765625 C11 0 11 0 12 1 C12.08790975 3.29151417 12.10694038 5.58572524 12.09765625 7.87890625 C12.0962413 8.5655687 12.09482635 9.25223114 12.09336853 9.95970154 C12.08775479 12.16067801 12.07520007 14.36155409 12.0625 16.5625 C12.05748676 18.05143083 12.05292355 19.54036324 12.04882812 21.02929688 C12.03778093 24.68623075 12.02050713 28.34310558 12 32 C11.67 32 11.34 32 11 32 C11 22.1 11 12.2 11 2 C4.62340772 1.39558439 4.62340772 1.39558439 2.078125 3.1640625 C0.60464094 5.67325638 0.67068016 7.47982596 0.75 10.375 C0.76546875 11.31085938 0.7809375 12.24671875 0.796875 13.2109375 C0.93236659 15.98954428 0.93236659 15.98954428 1.57421875 18.61328125 C2.19052368 22.06798138 1.09234384 24.72296848 0 28 C-0.33 28 -0.66 28 -1 28 C-1.02891949 23.70834738 -1.04677118 19.41671964 -1.0625 15.125 C-1.07087891 13.90167969 -1.07925781 12.67835938 -1.08789062 11.41796875 C-1.09111328 10.25136719 -1.09433594 9.08476562 -1.09765625 7.8828125 C-1.10289307 6.80402832 -1.10812988 5.72524414 -1.11352539 4.61376953 C-1 2 -1 2 0 0 Z " fill="#D6C351" transform="translate(239,323)"/>
<path d="M0 0 C2.64 0 5.28 0 8 0 C8 3.63 8 7.26 8 11 C5.36 11 2.72 11 0 11 C0 7.37 0 3.74 0 0 Z " fill="#010101" transform="translate(291,671)"/>
<path d="M0 0 C3.63 0 7.26 0 11 0 C11 0.66 11 1.32 11 2 C8.36 2 5.72 2 3 2 C2.30734579 4.33770797 2.00399997 6.16799856 2.0625 8.625 C2 11 2 11 0 13 C-3.08203125 13.16015625 -3.08203125 13.16015625 -6.8125 13.0625 C-11.08817722 12.95887452 -14.82996414 13.08669843 -19 14 C-20.32 14 -21.64 14 -23 14 C-23 13.01 -23 12.02 -23 11 C-15.41 11 -7.82 11 0 11 C0 7.37 0 3.74 0 0 Z " fill="#281A0E" transform="translate(351,201)"/>
<path d="M0 0 C2.05078125 0.03255208 4.1015625 0.06510417 6.15234375 0.09765625 C6.15234375 3.06765625 6.15234375 6.03765625 6.15234375 9.09765625 C3.18234375 9.09765625 0.21234375 9.09765625 -2.84765625 9.09765625 C-2.9453125 2.9453125 -2.9453125 2.9453125 -2.84765625 1.09765625 C-1.84765625 0.09765625 -1.84765625 0.09765625 0 0 Z " fill="#C28F6E" transform="translate(284.84765625,143.90234375)"/>
<path d="M0 0 C2.31 0 4.62 0 7 0 C6.360625 0.20625 5.72125 0.4125 5.0625 0.625 C4.381875 1.07875 3.70125 1.5325 3 2 C2.67 3.98 2.34 5.96 2 8 C8.27 8 14.54 8 21 8 C21 5.36 21 2.72 21 0 C21.33 0 21.66 0 22 0 C22 3.3 22 6.6 22 10 C14.74 10 7.48 10 0 10 C0 6.7 0 3.4 0 0 Z " fill="#BE9B84" transform="translate(328,202)"/>
<path d="M0 0 C7.26 0 14.52 0 22 0 C22 3.3 22 6.6 22 10 C21.67 10 21.34 10 21 10 C21 7.69 21 5.38 21 3 C14.78675502 2.26969092 9.15901243 1.76819751 3 3 C2.67 5.64 2.34 8.28 2 11 C1.34 11 0.68 11 0 11 C0 7.37 0 3.74 0 0 Z " fill="#2A190D" transform="translate(271,190)"/>
<path d="M0 0 C2.64 0 5.28 0 8 0 C8 2.64 8 5.28 8 8 C5.36 7.67 2.72 7.34 0 7 C0 4.69 0 2.38 0 0 Z " fill="#BC8B6D" transform="translate(261,192)"/>
<path d="M0 0 C2.64 0 5.28 0 8 0 C8 2.31 8 4.62 8 7 C5.36 7 2.72 7 0 7 C0 4.69 0 2.38 0 0 Z " fill="#BD8D6B" transform="translate(295,192)"/>
<path d="M0 0 C0.94875 0.04125 1.8975 0.0825 2.875 0.125 C2.875 2.435 2.875 4.745 2.875 7.125 C0.235 7.125 -2.405 7.125 -5.125 7.125 C-5.25 4.75 -5.25 4.75 -5.125 2.125 C-3.125 0.125 -3.125 0.125 0 0 Z " fill="#B7886C" transform="translate(358.125,191.875)"/>
<path d="M0 0 C0.33 0 0.66 0 1 0 C1.33 2.64 1.66 5.28 2 8 C3.09699219 8.06058594 4.19398438 8.12117187 5.32421875 8.18359375 C6.77865654 8.26804498 8.23308305 8.35269066 9.6875 8.4375 C10.40873047 8.47681641 11.12996094 8.51613281 11.87304688 8.55664062 C15.66707282 8.78185678 19.28651492 9.12839305 23 10 C23 10.33 23 10.66 23 11 C15.41 11 7.82 11 0 11 C0 7.37 0 3.74 0 0 Z " fill="#150300" transform="translate(213,190)"/>
<path d="M0 0 C0.99 0.495 0.99 0.495 2 1 C3.18681726 4.56045177 3.09689832 7.43808337 3.0625 11.1875 C3.05347656 12.45980469 3.04445313 13.73210937 3.03515625 15.04296875 C3.02355469 16.01878906 3.01195312 16.99460937 3 18 C2.01 18 1.02 18 0 18 C0 12.06 0 6.12 0 0 Z " fill="#5D582F" transform="translate(253,321)"/>
<path d="M0 0 C0 0.66 0 1.32 0 2 C-5.28 2 -10.56 2 -16 2 C-16 1.34 -16 0.68 -16 0 C-10.27304317 -2.71276903 -5.87042768 -1.50821265 0 0 Z " fill="#59552E" transform="translate(252,319)"/>
<path d="M0 0 C2.45933991 0.11369211 4.9167909 0.24042651 7.375 0.375 C8.07367188 0.4059375 8.77234375 0.436875 9.4921875 0.46875 C14.7734375 0.7734375 14.7734375 0.7734375 17 3 C11.39 3 5.78 3 0 3 C0 2.01 0 1.02 0 0 Z " fill="#5A572D" transform="translate(311,318)"/>
<path d="M0 0 C3.3 0 6.6 0 10 0 C10 0.66 10 1.32 10 2 C7.36 2 4.72 2 2 2 C2 4.31 2 6.62 2 9 C1.34 9 0.68 9 0 9 C0 6.03 0 3.06 0 0 Z " fill="#B7937D" transform="translate(293,190)"/>
<path d="M0 0 C0.99 0 1.98 0 3 0 C3 3.63 3 7.26 3 11 C1.68 10.67 0.36 10.34 -1 10 C-0.67 6.7 -0.34 3.4 0 0 Z " fill="#4F524F" transform="translate(198,236)"/>
<path d="M0 0 C0.33 0 0.66 0 1 0 C1 3.3 1 6.6 1 10 C4.63 10 8.26 10 12 10 C12 10.33 12 10.66 12 11 C8.7 11 5.4 11 2 11 C1.67 11.99 1.34 12.98 1 14 C0.67 13.01 0.34 12.02 0 11 C-0.66 10.67 -1.32 10.34 -2 10 C-1.34 10 -0.68 10 0 10 C0 6.7 0 3.4 0 0 Z " fill="#656966" transform="translate(127,546)"/>
<path d="M0 0 C1.32 0 2.64 0 4 0 C3.67 5.28 3.34 10.56 3 16 C2.67 16 2.34 16 2 16 C2 12.04 2 8.08 2 4 C1.34 4 0.68 4 0 4 C0 2.68 0 1.36 0 0 Z " fill="#575A58" transform="translate(524,477)"/>
<path d="M0 0 C2.33302989 0.03762951 4.66713319 0.04665734 7 0 C7.33 0.99 7.66 1.98 8 3 C5.89521396 2.88590318 3.79115423 2.75834639 1.6875 2.625 C0.51574219 2.55539062 -0.65601563 2.48578125 -1.86328125 2.4140625 C-5 2 -5 2 -8 0 C-5.13037862 -1.43481069 -3.14145077 -0.5334539 0 0 Z " fill="#51543D" transform="translate(320,317)"/>
<path d="M0 0 C3.96 0 7.92 0 12 0 C8.77155174 2.15229884 6.81025223 2.60309873 3 3 C2.01 2.67 1.02 2.34 0 2 C0 1.34 0 0.68 0 0 Z " fill="#27190E" transform="translate(293,201)"/>
<path d="M0 0 C2.97 0.495 2.97 0.495 6 1 C6 1.99 6 2.98 6 4 C4.35 4 2.7 4 1 4 C0.67 2.68 0.34 1.36 0 0 Z " fill="#4A4F51" transform="translate(322,163)"/>
<path d="M0 0 C0.33 0 0.66 0 1 0 C1 1.98 1 3.96 1 6 C-1.97 6 -4.94 6 -8 6 C-8 5.67 -8 5.34 -8 5 C-6.865625 4.731875 -5.73125 4.46375 -4.5625 4.1875 C-3.386875 3.795625 -2.21125 3.40375 -1 3 C-0.67 2.01 -0.34 1.02 0 0 Z " fill="#D4BF54" transform="translate(325,445)"/>
<path d="M0 0 C2.31 0 4.62 0 7 0 C6.38125 0.20625 5.7625 0.4125 5.125 0.625 C2.15346355 2.54775888 1.86975341 4.66594527 1 8 C0.67 8 0.34 8 0 8 C0 5.36 0 2.72 0 0 Z " fill="#BB9A84" transform="translate(328,202)"/>
</svg>
